<svg aria-hidden="true" style="position: absolute; width: 0; height: 0; overflow: hidden;" version="1.1" xmlns="http://www.w3.org/2000/svg" xmlns:xlink="http://www.w3.org/1999/xlink">
  <defs>
    <symbol id="icon-clos" viewBox="0 0 32 32">
      <path d="M27.179 0.918l-11.315 11.312-11.312-11.312-3.771 3.771 11.312 11.312-11.312 11.312 3.771 3.771 11.312-11.312 11.315 11.312 3.771-3.771-11.312-11.312 11.312-11.312-3.771-3.771z"></path>
    </symbol>
    <symbol id="icon-instagram" viewBox="0 0 31 32">
      <path d="M15.607 6.666c3.128 0 3.498 0.014 4.728 0.069 1.143 0.050 1.76 0.242 2.172 0.402 0.544 0.211 0.937 0.467 1.344 0.874 0.412 0.412 0.663 0.8 0.878 1.345 0.16 0.412 0.352 1.033 0.402 2.172 0.055 1.235 0.069 1.605 0.069 4.728s-0.014 3.498-0.069 4.728c-0.050 1.143-0.242 1.76-0.402 2.172-0.211 0.544-0.466 0.937-0.874 1.344-0.412 0.412-0.8 0.663-1.344 0.878-0.412 0.16-1.034 0.352-2.172 0.402-1.235 0.055-1.605 0.069-4.728 0.069s-3.498-0.014-4.728-0.069c-1.143-0.050-1.76-0.242-2.172-0.402-0.544-0.211-0.937-0.466-1.345-0.874-0.412-0.412-0.663-0.8-0.878-1.344-0.16-0.412-0.352-1.034-0.402-2.172-0.055-1.235-0.069-1.605-0.069-4.728s0.014-3.498 0.069-4.728c0.050-1.143 0.242-1.76 0.402-2.172 0.211-0.544 0.467-0.937 0.874-1.345 0.412-0.412 0.8-0.663 1.345-0.878 0.412-0.16 1.033-0.352 2.172-0.402 1.23-0.055 1.601-0.069 4.728-0.069h0.001zM15.607 4.559c-3.178 0-3.575 0.014-4.824 0.069-1.244 0.055-2.099 0.256-2.839 0.544-0.773 0.301-1.427 0.699-2.076 1.353-0.654 0.65-1.052 1.303-1.353 2.071-0.288 0.745-0.489 1.596-0.544 2.839-0.055 1.253-0.069 1.65-0.069 4.829s0.014 3.575 0.069 4.824c0.055 1.244 0.256 2.099 0.544 2.839 0.302 0.773 0.699 1.427 1.353 2.076 0.649 0.649 1.303 1.052 2.071 1.349 0.746 0.288 1.596 0.489 2.839 0.544 1.248 0.055 1.646 0.069 4.824 0.069s3.576-0.014 4.824-0.069c1.244-0.055 2.099-0.256 2.839-0.544 0.768-0.297 1.422-0.699 2.071-1.349s1.052-1.303 1.349-2.071c0.288-0.746 0.489-1.596 0.544-2.839 0.055-1.248 0.069-1.646 0.069-4.824s-0.014-3.575-0.069-4.824c-0.055-1.244-0.256-2.099-0.544-2.839-0.288-0.778-0.686-1.431-1.34-2.081-0.649-0.649-1.303-1.052-2.071-1.349-0.746-0.288-1.596-0.489-2.839-0.544-1.253-0.059-1.651-0.073-4.829-0.073l-0.001 0.001z"></path>
      <path d="M15.607 10.252c-3.319 0-6.013 2.693-6.013 6.013s2.693 6.013 6.013 6.013 6.013-2.693 6.013-6.013c0-3.319-2.693-6.013-6.013-6.013zM15.607 20.165c-2.154 0-3.9-1.746-3.9-3.9s1.746-3.9 3.9-3.9c2.154 0 3.9 1.746 3.9 3.9s-1.746 3.9-3.9 3.9z"></path>
      <path d="M23.261 10.014c0 0.775-0.628 1.404-1.404 1.404s-1.404-0.628-1.404-1.404c0-0.775 0.628-1.404 1.404-1.404s1.404 0.629 1.404 1.404z"></path>
    </symbol>
    <symbol id="icon-linkedIn" viewBox="0 0 31 32">
      <path d="M25.122 4.558h-19.024c-1.207 0-2.195 0.988-2.195 2.195v19.024c0 1.207 0.988 2.195 2.195 2.195h19.024c1.207 0 2.195-0.988 2.195-2.195v-19.024c0-1.207-0.988-2.195-2.195-2.195zM12.683 23.582h-2.927v-10.244h2.927v10.244zM11.22 11.875c-0.809 0-1.463-0.654-1.463-1.463s0.654-1.463 1.463-1.463 1.463 0.654 1.463 1.463c0 0.809-0.654 1.463-1.463 1.463zM22.927 23.582h-2.927v-5.854c0-0.809-0.654-1.463-1.463-1.463s-1.463 0.654-1.463 1.463v5.854h-2.927v-10.244h2.927v1.815c0.604-0.828 1.527-1.815 2.561-1.815 1.82 0 3.293 1.638 3.293 3.659v6.585z"></path>
    </symbol>
    <symbol id="icon-logo" viewBox="0 0 75 32">
      <path d="M13.034 2.222c-0.142 0-0.292 0-0.433 0.017-1.636 0.136-3.139 0.831-4.209 2.097-1.165 1.378-1.447 2.829-1.433 4.583l-3.116-0.005c-0.14-0-0.284-0.004-0.43-0.008-0.407-0.011-0.829-0.023-1.21 0.047-0.23 0.042-0.43 0.154-0.592 0.322-0.283 0.294-0.29 0.666-0.271 1.047 0.029 0.601 0.081 1.202 0.132 1.803 0.028 0.327 0.056 0.654 0.080 0.98l0.517 6.683 0.252 3.227c0.012 0.159 0.022 0.32 0.032 0.482 0.036 0.578 0.072 1.164 0.224 1.716 0.263 0.94 0.785 1.786 1.507 2.444 0.63 0.572 1.392 0.981 2.218 1.188 0.699 0.169 1.51 0.149 2.272 0.132 0.227-0.005 0.449-0.011 0.663-0.011l7.859 0c0.2 0 0.406 0.005 0.615 0.010 0.677 0.016 1.382 0.033 2.015-0.115 0.89-0.207 1.79-0.695 2.439-1.339 0.604-0.6 1.087-1.4 1.298-2.227 0.161-0.633 0.202-1.327 0.241-2 0.013-0.217 0.025-0.432 0.042-0.642l0.344-4.426 0.429-5.435c0.021-0.268 0.048-0.54 0.075-0.812 0.058-0.589 0.117-1.183 0.116-1.765-0.001-0.358-0.076-0.692-0.333-0.958-0.177-0.183-0.465-0.273-0.71-0.313-0.366-0.060-0.768-0.049-1.156-0.039-0.144 0.004-0.286 0.008-0.423 0.008-0.98-0.002-1.96 0.002-2.94 0.010l-0.042 0.001c0.023-1.878-0.395-3.49-1.745-4.863-1.128-1.169-2.681-1.832-4.305-1.839l-0.021 0zM18.973 12.935l0.053 0.003c0.001 0.004 0.003 0.007 0.004 0.010 0.001 0.002 0.001 0.003 0.002 0.005 0.002 0.006 0.004 0.011 0.006 0.015l0.002 0.005c0.010 0.022 0.011 0.026 0.011 0.061-0.017 2.303-0.633 5.268-2.268 6.954-1.514 1.562-3.864 2.328-6.007 2.371 0.998-1.878 2.603-3.659 4.257-4.981 0.256-0.204 0.524-0.389 0.792-0.574 0.173-0.119 0.345-0.238 0.515-0.363 0.165-0.121 0.386-0.285 0.41-0.505 0.021-0.203-0.087-0.36-0.214-0.505-0.178-0.103-0.308-0.146-0.511-0.087-0.289 0.085-0.579 0.298-0.842 0.491-0.069 0.051-0.137 0.101-0.202 0.146-2.122 1.503-3.885 3.456-5.163 5.72-0.043-1.842 0.376-3.385 1.506-4.867 1.695-2.223 4.94-3.53 7.649-3.899zM2.502 10.068l21.051-0c-0.075 0.709-0.123 1.424-0.171 2.139-0.027 0.398-0.054 0.796-0.085 1.192l-0.567 7.103-0.212 2.617c-0.009 0.114-0.018 0.228-0.027 0.342-0.034 0.452-0.068 0.907-0.155 1.349-0.090 0.454-0.263 0.848-0.498 1.244-0.091 0.138-0.189 0.27-0.295 0.397-0.61 0.729-1.612 1.272-2.564 1.344-0.518 0.039-1.051 0.029-1.579 0.020-0.229-0.004-0.456-0.008-0.681-0.009l-7.843 0c-0.168 0-0.338 0.004-0.51 0.007-0.527 0.011-1.067 0.022-1.573-0.065-0.664-0.116-1.285-0.409-1.797-0.848-0.613-0.517-1.054-1.21-1.261-1.985-0.142-0.514-0.178-1.061-0.212-1.598-0.009-0.135-0.017-0.269-0.028-0.402l-0.207-2.663-0.784-10.185zM19.441 11.7l-0.016 0.002c-3.196 0.37-6.834 1.684-8.899 4.273-1.328 1.664-2.053 3.828-1.813 5.959 0.053 0.468 0.159 0.915 0.311 1.36-0.017 0.044-0.038 0.097-0.062 0.157-0.262 0.659-0.872 2.191-0.66 2.644 0.061 0.131 0.186 0.219 0.322 0.262 0.056 0.017 0.112 0.028 0.17 0.034 0.179-0.029 0.345-0.067 0.452-0.227 0.116-0.172 0.234-0.586 0.336-0.94 0.048-0.169 0.093-0.324 0.131-0.433 0.131-0.373 0.28-0.74 0.429-1.106l0.002-0.004c0.017-0.043 0.035-0.086 0.052-0.129 2.635 0.008 5.449-0.817 7.356-2.698 2.132-2.104 2.669-5.496 2.673-8.367 0-0.226-0.015-0.495-0.181-0.668-0.102-0.107-0.255-0.139-0.397-0.135-0.069 0.002-0.137 0.009-0.206 0.016zM12.777 3.374c0.102-0.006 0.205-0.012 0.307-0.011 1.252 0.009 2.505 0.569 3.385 1.451 1.198 1.201 1.442 2.476 1.445 4.106l-9.746 0.004c-0.039-1.401 0.186-2.681 1.106-3.788 0.883-1.063 2.144-1.64 3.504-1.761z"></path>
      <path d="M19.026 12.938l-0.053-0.003c-2.708 0.369-5.953 1.676-7.648 3.899-1.13 1.482-1.549 3.025-1.506 4.867 1.278-2.264 3.041-4.217 5.163-5.72 0.065-0.045 0.133-0.095 0.202-0.146 0.262-0.193 0.553-0.406 0.842-0.491 0.203-0.060 0.334-0.017 0.511 0.087 0.127 0.145 0.235 0.302 0.213 0.505-0.023 0.22-0.245 0.384-0.41 0.505-0.17 0.124-0.342 0.243-0.515 0.363-0.268 0.185-0.536 0.369-0.792 0.574-1.655 1.323-3.259 3.103-4.257 4.981 2.143-0.043 4.494-0.809 6.007-2.371 1.634-1.687 2.251-4.651 2.268-6.954 0-0.035-0.001-0.039-0.011-0.061-0.002-0.005-0.005-0.012-0.008-0.020-0.002-0.004-0.004-0.009-0.006-0.015zM19.425 11.702l0.016-0.002c0.068-0.007 0.137-0.015 0.206-0.016 0.142-0.003 0.296 0.029 0.397 0.135 0.166 0.173 0.181 0.442 0.181 0.668-0.004 2.871-0.541 6.264-2.673 8.367-1.906 1.881-4.721 2.706-7.356 2.698-0.017 0.043-0.035 0.086-0.052 0.129l-0.002 0.004c-0.149 0.366-0.298 0.733-0.429 1.106-0.038 0.109-0.083 0.264-0.131 0.433-0.101 0.354-0.22 0.768-0.336 0.94-0.108 0.16-0.273 0.197-0.452 0.227-0.058-0.007-0.114-0.017-0.17-0.034-0.135-0.043-0.26-0.131-0.322-0.262-0.212-0.453 0.398-1.985 0.66-2.644 0.024-0.060 0.045-0.113 0.062-0.157-0.153-0.445-0.259-0.892-0.311-1.36-0.24-2.131 0.486-4.295 1.813-5.959 2.066-2.589 5.703-3.903 8.899-4.273z"></path>
      <path d="M19.441 11.7l-0.016 0.002c-3.196 0.37-6.834 1.684-8.899 4.273-1.328 1.664-2.053 3.828-1.813 5.959 0.053 0.468 0.159 0.915 0.311 1.36-0.017 0.044-0.038 0.097-0.062 0.157-0.262 0.659-0.872 2.191-0.66 2.644 0.061 0.131 0.186 0.219 0.322 0.262 0.056 0.017 0.112 0.028 0.17 0.034 0.179-0.029 0.345-0.067 0.452-0.227 0.116-0.172 0.234-0.586 0.336-0.94 0.048-0.169 0.093-0.324 0.131-0.433 0.131-0.373 0.28-0.74 0.429-1.106 0.001-0.001 0.001-0.003 0.002-0.004 0.017-0.043 0.035-0.086 0.052-0.129 2.635 0.008 5.45-0.817 7.356-2.698 2.132-2.104 2.669-5.496 2.673-8.367 0-0.226-0.015-0.495-0.181-0.668-0.102-0.107-0.255-0.139-0.397-0.135-0.069 0.002-0.137 0.009-0.206 0.016zM18.973 12.935l0.053 0.003c0.002 0.005 0.004 0.010 0.006 0.015 0.003 0.008 0.006 0.014 0.008 0.020 0.010 0.022 0.011 0.026 0.011 0.061-0.017 2.303-0.633 5.268-2.268 6.954-1.514 1.562-3.864 2.328-6.007 2.371 0.998-1.878 2.603-3.659 4.257-4.981 0.256-0.204 0.524-0.389 0.792-0.574 0.173-0.119 0.345-0.238 0.515-0.363 0.165-0.121 0.386-0.285 0.41-0.505 0.021-0.203-0.087-0.36-0.214-0.505-0.178-0.103-0.308-0.146-0.511-0.087-0.288 0.085-0.579 0.298-0.841 0.491-0.069 0.051-0.137 0.101-0.202 0.146-2.122 1.503-3.885 3.456-5.163 5.72-0.043-1.842 0.376-3.385 1.506-4.867 1.695-2.223 4.94-3.53 7.649-3.899z"></path>
      <path d="M60.587 19.504c-0.080-2.264-1.979-4.034-4.242-3.954s-4.035 1.979-3.955 4.243c0.080 2.264 1.98 4.034 4.243 3.954s4.033-1.98 3.954-4.243zM56.487 16.781c0.66 0.027 1.195 0.186 1.699 0.631 0.6 0.531 0.934 1.298 0.978 2.092s-0.206 1.601-0.747 2.193c-0.495 0.541-1.112 0.784-1.834 0.82-0.66-0.007-1.204-0.11-1.724-0.542-0.608-0.506-0.951-1.254-1.016-2.035-0.067-0.812 0.146-1.652 0.685-2.275 0.535-0.618 1.166-0.83 1.96-0.884z"></path>
      <path d="M49.189 19.165c-0.27-2.251-2.315-3.855-4.565-3.581-2.244 0.273-3.843 2.312-3.574 4.557s2.305 3.848 4.55 3.583c2.251-0.266 3.859-2.308 3.59-4.558zM44.755 16.814c0.657-0.053 1.251 0.016 1.806 0.397 0.623 0.428 1.014 1.090 1.144 1.828 0.147 0.839 0.009 1.736-0.496 2.435-0.442 0.612-0.994 0.916-1.729 1.033-0.672 0.034-1.265-0.006-1.831-0.407-0.61-0.43-1.021-1.088-1.141-1.825-0.137-0.813 0.027-1.748 0.512-2.424 0.426-0.594 1.022-0.923 1.735-1.037z"></path>
      <path d="M69.184 15.545c-0.020 0.001-0.040 0.002-0.060 0.005-1.032 0.122-1.962 0.621-2.611 1.441-0.74 0.935-0.995 2.121-0.849 3.294 0.12 1.030 0.647 1.97 1.464 2.609 0.968 0.752 2.194 0.943 3.39 0.779 0.692-0.095 1.731-0.426 2.174-1.002 0.124-0.162 0.187-0.359 0.158-0.563-0.020-0.143-0.083-0.28-0.201-0.368-0.136-0.101-0.316-0.114-0.477-0.082-0.224 0.044-0.424 0.182-0.614 0.313-0.040 0.028-0.080 0.055-0.119 0.081-0.835 0.434-1.761 0.638-2.679 0.34-0.653-0.215-1.193-0.684-1.497-1.302-0.158-0.316-0.237-0.651-0.307-0.995h3.94c0.164 0 0.34 0.006 0.521 0.012 0.467 0.015 0.967 0.031 1.38-0.043 0.118-0.021 0.23-0.084 0.315-0.167 0.194-0.189 0.228-0.456 0.222-0.714-0.022-0.987-0.486-1.961-1.204-2.629-0.829-0.771-1.829-1.061-2.944-1.011zM69.306 16.779c0.598-0.070 1.201 0.082 1.694 0.429 0.589 0.419 0.898 1.013 1.022 1.713-0.499 0.006-1 0.005-1.5 0.003-0.25-0.001-0.5-0.001-0.749-0.001l-2.771 0.004c0.127-0.426 0.274-0.814 0.547-1.171 0.439-0.575 1.047-0.884 1.757-0.977z"></path>
      <path d="M47.24 12.615c1.479-0.035 2.966-0.003 4.446-0.005 0.843-0.002 1.92-0.070 2.738 0.014 0.132 0.014 0.236 0.051 0.337 0.139 0.142 0.124 0.237 0.312 0.242 0.502 0.004 0.172-0.101 0.369-0.225 0.484-0.095 0.088-0.208 0.123-0.332 0.143-0.341 0.055-0.717 0.023-1.062 0.022l-1.836-0.003-0.001 6.814c0.003 0.574 0.075 1.827-0.011 2.315-0.027 0.153-0.083 0.306-0.188 0.424-0.114 0.126-0.27 0.19-0.439 0.193-0.176 0.004-0.349-0.035-0.476-0.163-0.15-0.15-0.205-0.371-0.223-0.576-0.034-0.378-0.003-0.779 0.001-1.159 0.007-0.562 0.001-1.125 0.001-1.687l0.004-6.163c-0.611 0.003-2.724 0.1-3.157-0.096-0.158-0.072-0.257-0.182-0.315-0.347-0.061-0.175-0.033-0.361 0.055-0.522 0.103-0.188 0.242-0.269 0.441-0.33z"></path>
      <path d="M37.566 15.551c0.549-0.031 1.086 0.004 1.619 0.147 0.563 0.151 1.425 0.483 1.716 1.018 0.080 0.147 0.122 0.323 0.065 0.486-0.058 0.166-0.215 0.293-0.374 0.358-0.463 0.19-1.043-0.448-1.479-0.613-0.709-0.267-1.561-0.252-2.25 0.069-0.633 0.296-1.089 0.856-1.325 1.506-0.274 0.755-0.297 1.74 0.051 2.475 0.322 0.682 0.915 1.159 1.618 1.407 0.805 0.285 1.643 0.133 2.395-0.227 0.233-0.126 0.445-0.294 0.71-0.349 0.137-0.028 0.273-0.013 0.39 0.068 0.144 0.1 0.26 0.297 0.279 0.471 0.018 0.163-0.046 0.314-0.147 0.439-0.44 0.545-1.419 0.819-2.086 0.901-1.157 0.142-2.361-0.090-3.287-0.828-0.87-0.68-1.424-1.687-1.532-2.786-0.115-1.095 0.206-2.191 0.894-3.051 0.697-0.857 1.647-1.375 2.742-1.492z"></path>
      <path d="M62.269 13.482c0.023-0.001 0.046-0.002 0.069-0.003 0.205-0.007 0.411 0.048 0.556 0.2 0.346 0.361 0.208 1.578 0.204 2.077 0.471 0.003 1.616-0.144 1.969 0.17 0.128 0.114 0.18 0.272 0.18 0.44 0.001 0.163-0.042 0.319-0.163 0.434-0.33 0.312-1.52 0.189-1.987 0.187 0.004 1.001-0.131 4.086 0.178 4.845 0.499 1.228 1.579 0.148 2.196 0.438 0.132 0.062 0.24 0.194 0.289 0.33 0.069 0.195 0.008 0.368-0.072 0.547-0.014 0.015-0.027 0.030-0.041 0.045-0.372 0.388-1.072 0.481-1.586 0.489-0.596 0.009-1.16-0.093-1.6-0.534-0.318-0.319-0.516-0.756-0.613-1.192-0.15-0.673-0.088-1.417-0.087-2.103l0.002-2.864c-0.362-0-0.724-0.003-1.085-0.009-0.060-0.037-0.118-0.076-0.17-0.123-0.143-0.129-0.208-0.321-0.213-0.51-0.004-0.158 0.044-0.315 0.162-0.424 0.292-0.271 0.935-0.174 1.306-0.167-0.001-0.521-0.115-1.455 0.081-1.914 0.088-0.204 0.23-0.277 0.426-0.359z"></path>
      <path d="M33.582 13.286c-0.623-0.061-3.672-0.039-4.73-0.024-0.195 0.003-0.375 0.016-0.533 0.028-0.135 0.010-0.254 0.019-0.352 0.019 0 0-0.421 0.099-0.558 0.288-0.089 0.124-0.12 0.282-0.141 0.43-0.113 0.788-0.179 1.591-0.245 2.393-0.035 0.422-0.069 0.843-0.111 1.26l-0.401 4.049c-0.011 0.108-0.029 0.256-0.050 0.424-0.068 0.542-0.162 1.294-0.101 1.593 0.034 0.166 0.122 0.303 0.268 0.389 0.145 0.085 0.308 0.134 0.473 0.162h0.002c0.34-0.001 0.853 0.005 1.427 0.011 1.189 0.012 4.211 0.027 4.913-0.003 0.14-0.006 0.289-0.018 0.421-0.068 0.177-0.067 0.323-0.196 0.393-0.374 0.071-0.18 0.055-0.381-0.025-0.555-0.081-0.175-0.189-0.268-0.372-0.327h-6.074c0.101-0.894 0.192-1.79 0.272-2.686l0.072-0.729 0.007-0.072c0.047 0.001 0.11 0.002 0.184 0.003 0.619 0.009 3.63 0.031 4.014-0.026 0.141-0.021 0.272-0.056 0.375-0.16 0.133-0.135 0.189-0.32 0.178-0.507-0.009-0.158-0.079-0.331-0.2-0.438-0.080-0.071-0.18-0.117-0.286-0.132-0.359-0.052-3.036-0.038-3.712-0.029-0.181 0.002-0.332 0.004-0.429 0.004l0.308-3.633h3.278c0.167 0 0.341 0.006 0.518 0.011 0.428 0.014 0.871 0.028 1.269-0.034 0.142-0.022 0.263-0.070 0.365-0.173 0.126-0.126 0.194-0.317 0.185-0.494-0.010-0.181-0.107-0.353-0.249-0.464-0.108-0.085-0.217-0.123-0.352-0.136z"></path>
    </symbol>
    <symbol id="icon-menu" viewBox="0 0 32 32">
      <path d="M5.333 8h21.333v2.667h-21.333v-2.667zM5.333 14.667h21.333v2.667h-21.333v-2.667zM5.333 21.333h21.333v2.667h-21.333v-2.667z"></path>
    </symbol>
    <symbol id="icon-star" viewBox="0 0 32 32">
      <path d="M14.513 2.5c0.55-1.306 2.423-1.306 2.973 0l3.246 7.71c0.232 0.551 0.756 0.927 1.358 0.975l8.426 0.667c1.428 0.113 2.006 1.873 0.919 2.793l-6.419 5.432c-0.458 0.388-0.659 0.997-0.519 1.577l1.961 8.123c0.332 1.376-1.183 2.464-2.405 1.727l-7.214-4.353c-0.515-0.311-1.163-0.311-1.678 0l-7.214 4.353c-1.222 0.737-2.738-0.35-2.405-1.727l1.961-8.123c0.14-0.58-0.060-1.189-0.519-1.577l-6.42-5.432c-1.088-0.92-0.509-2.68 0.919-2.793l8.426-0.667c0.602-0.048 1.126-0.424 1.358-0.975l3.246-7.71z"></path>
    </symbol>
    <symbol id="icon-youtube" viewBox="0 0 31 32">
      <path d="M28.089 10.025c-0.148-0.55-0.438-1.051-0.84-1.454s-0.903-0.694-1.452-0.843c-2.037-0.559-10.187-0.568-10.187-0.568s-8.148-0.009-10.187 0.526c-0.549 0.156-1.049 0.451-1.451 0.856s-0.694 0.907-0.846 1.457c-0.537 2.037-0.542 6.262-0.542 6.262s-0.005 4.246 0.528 6.262c0.299 1.115 1.177 1.995 2.293 2.296 2.058 0.559 10.185 0.568 10.185 0.568s8.15 0.009 10.187-0.524c0.55-0.149 1.051-0.439 1.454-0.841s0.694-0.903 0.845-1.452c0.539-2.036 0.542-6.259 0.542-6.259s0.026-4.247-0.529-6.284zM13.003 20.174l0.006-7.805 6.773 3.909-6.78 3.896z"></path>
    </symbol>
  </defs>
</svg>