<svg xmlns="http://www.w3.org/2000/svg" width="280" height="122" fill="none">
  <path fill="#030A06" d="M47.888 9.411c-.536 0-1.102.001-1.633.064-6.166.515-11.833 3.134-15.869 7.906-4.391 5.194-5.453 10.666-5.402 17.277l-11.748-.018c-.527 0-1.07-.015-1.622-.03-1.533-.043-3.125-.087-4.561.176A4.08 4.08 0 0 0 4.823 36C3.755 37.11 3.73 38.512 3.8 39.948c.109 2.265.303 4.532.498 6.797.105 1.232.211 2.465.303 3.695l1.95 25.196.949 12.168c.046.6.084 1.207.121 1.816.134 2.178.27 4.387.845 6.47a19.642 19.642 0 0 0 5.68 9.213 19.523 19.523 0 0 0 8.363 4.481c2.633.635 5.693.563 8.567.496.855-.02 1.694-.04 2.5-.041l15.817-.004 13.813.006c.755 0 1.531.018 2.318.037 2.551.061 5.21.124 7.595-.432 3.354-.781 6.748-2.622 9.197-5.05 2.279-2.26 4.1-5.278 4.895-8.397.608-2.385.761-5.002.91-7.54.047-.818.094-1.628.156-2.42l1.297-16.687 1.616-20.49c.079-1.012.18-2.035.281-3.06.22-2.221.441-4.46.436-6.655-.002-1.351-.288-2.61-1.256-3.614-.666-.69-1.754-1.028-2.675-1.179-1.381-.225-2.896-.185-4.36-.146-.542.015-1.077.029-1.596.03-3.695-.008-7.39.005-11.086.038l-.159.003c.087-7.08-1.489-13.157-6.58-18.335a22.687 22.687 0 0 0-16.23-6.933h-.077Zm22.393 40.387.199.011a2.344 2.344 0 0 0 .045.111l.009.019c.036.083.043.098.041.231-.064 8.682-2.388 19.86-8.55 26.219-5.705 5.888-14.566 8.777-22.647 8.937 3.764-7.079 9.812-13.792 16.05-18.778.966-.771 1.976-1.468 2.986-2.164.651-.449 1.302-.898 1.941-1.367.621-.455 1.457-1.073 1.545-1.904.08-.765-.326-1.359-.805-1.905-.671-.389-1.162-.551-1.928-.326-1.088.319-2.184 1.123-3.173 1.85-.262.192-.517.38-.762.55a66.45 66.45 0 0 0-19.465 21.564c-.162-6.945 1.42-12.762 5.678-18.348 6.391-8.382 18.624-13.309 28.836-14.7ZM8.182 38.989l79.366-.001c-.282 2.673-.464 5.37-.647 8.064-.1 1.5-.202 3-.32 4.494l-2.138 26.78-.799 9.868c-.036.428-.068.859-.1 1.29-.129 1.703-.258 3.42-.587 5.088-.337 1.71-.992 3.197-1.879 4.69-.342.518-.713 1.018-1.112 1.496-2.3 2.749-6.077 4.797-9.665 5.068-1.953.148-3.963.111-5.954.074-.862-.016-1.72-.032-2.57-.032l-16.465-.005-13.103.006c-.632 0-1.275.014-1.923.027-1.987.041-4.022.083-5.932-.246a14.154 14.154 0 0 1-6.776-3.195 14.8 14.8 0 0 1-4.755-7.483c-.536-1.936-.67-4-.8-6.025-.033-.51-.066-1.016-.105-1.517l-.78-10.04-2.956-38.4Zm63.86 6.156-.058.006C59.936 46.545 46.22 51.5 38.434 61.26c-5.005 6.272-7.74 14.43-6.837 22.464.198 1.764.598 3.45 1.174 5.128l-.235.594c-.989 2.485-3.287 8.26-2.488 9.969.231.493.702.825 1.213.987.21.066.422.104.641.13.675-.112 1.299-.251 1.705-.855.437-.649.883-2.209 1.265-3.543.182-.636.35-1.22.495-1.631.495-1.406 1.056-2.789 1.618-4.17l.006-.016.197-.485c9.935.03 20.545-3.08 27.732-10.172 8.038-7.932 10.062-20.722 10.078-31.546.001-.853-.057-1.866-.682-2.518-.383-.402-.961-.523-1.498-.511a9.248 9.248 0 0 0-.775.06Zm-25.12-31.393c.385-.024.771-.045 1.156-.043 4.72.034 9.444 2.144 12.76 5.47 4.515 4.528 5.439 9.333 5.448 15.48l-17.289-.01-19.455.024c-.149-5.283.702-10.108 4.168-14.28 3.33-4.008 8.082-6.183 13.212-6.641Z"/>
  <path fill="#030A06" d="m70.48 49.81-.2-.012c-10.21 1.39-22.444 6.317-28.835 14.7-4.259 5.586-5.84 11.403-5.678 18.348a66.45 66.45 0 0 1 19.465-21.564c.245-.171.5-.358.762-.55.989-.727 2.085-1.531 3.172-1.85.767-.225 1.258-.063 1.929.326.479.546.885 1.14.805 1.905-.088.83-.924 1.449-1.545 1.904-.639.469-1.29.918-1.94 1.366-1.011.697-2.021 1.394-2.986 2.164-6.239 4.986-12.287 11.7-16.051 18.779 8.08-.16 16.942-3.05 22.648-8.938 6.161-6.358 8.485-17.536 8.549-26.218.002-.133-.005-.148-.041-.231a3.366 3.366 0 0 1-.054-.13Zm1.504-4.66.059-.005a9.25 9.25 0 0 1 .775-.061c.537-.012 1.115.109 1.498.51.625.653.683 1.666.682 2.52-.016 10.823-2.04 23.613-10.078 31.545-7.187 7.091-17.797 10.201-27.732 10.172l-.197.485-.006.016c-.562 1.38-1.124 2.764-1.619 4.17-.144.41-.312.995-.494 1.63-.382 1.335-.828 2.895-1.265 3.544-.406.604-1.03.743-1.705.854a3.413 3.413 0 0 1-.641-.129c-.51-.163-.982-.494-1.213-.987-.8-1.709 1.499-7.485 2.488-9.97l.235-.593a23.885 23.885 0 0 1-1.174-5.128c-.903-8.034 1.831-16.192 6.837-22.464 7.787-9.76 21.502-14.715 33.55-16.108Z"/>
  <path fill="#030A06" d="m72.043 45.145-.059.006c-12.047 1.393-25.763 6.349-33.55 16.108-5.005 6.272-7.74 14.43-6.836 22.464a23.89 23.89 0 0 0 1.173 5.128l-.235.593c-.989 2.485-3.287 8.261-2.487 9.97.23.493.702.824 1.212.987.21.066.423.104.642.129.675-.111 1.298-.25 1.705-.854.436-.65.883-2.208 1.265-3.543.182-.635.35-1.22.494-1.631.495-1.406 1.057-2.79 1.618-4.17l.007-.016.197-.485c9.934.029 20.545-3.08 27.732-10.172 8.037-7.932 10.062-20.722 10.078-31.546 0-.853-.058-1.866-.682-2.519-.384-.401-.962-.522-1.498-.51-.259.005-.518.033-.776.06Zm-1.762 4.653.2.011.021.056.032.074c.037.083.043.098.041.231-.063 8.682-2.387 19.86-8.549 26.218-5.706 5.889-14.567 8.778-22.648 8.938 3.764-7.08 9.813-13.793 16.051-18.779.965-.77 1.975-1.467 2.986-2.163.65-.45 1.302-.898 1.94-1.367.622-.456 1.457-1.074 1.545-1.904.08-.765-.326-1.359-.805-1.905-.67-.39-1.162-.551-1.928-.327-1.088.32-2.184 1.124-3.173 1.85-.262.193-.517.38-.761.55a66.45 66.45 0 0 0-19.465 21.565c-.163-6.945 1.419-12.762 5.677-18.348 6.392-8.383 18.625-13.31 28.836-14.7ZM227.168 74.566c-.302-8.534-7.462-15.207-15.995-14.907-8.535.299-15.21 7.462-14.909 15.996.301 8.535 7.465 15.209 15.998 14.908 8.534-.303 15.207-7.465 14.906-15.997ZM211.71 64.298c2.49.1 4.507.7 6.405 2.38 2.261 2.001 3.522 4.893 3.687 7.888.166 2.997-.777 6.036-2.818 8.269-1.864 2.04-4.19 2.954-6.915 3.09-2.487-.026-4.538-.413-6.5-2.045-2.291-1.905-3.586-4.727-3.83-7.672-.253-3.061.549-6.227 2.582-8.576 2.016-2.328 4.397-3.13 7.389-3.334ZM184.197 73.285c-1.017-8.486-8.728-14.534-17.211-13.501-8.461 1.03-14.49 8.716-13.476 17.179 1.015 8.463 8.689 14.506 17.154 13.508 8.487-1.002 14.55-8.702 13.533-17.186Zm-16.716-8.862c2.475-.202 4.718.058 6.808 1.497 2.347 1.614 3.823 4.107 4.311 6.892.554 3.163.034 6.545-1.869 9.18-1.666 2.308-3.747 3.453-6.52 3.894-2.533.13-4.77-.024-6.903-1.533a10.454 10.454 0 0 1-4.3-6.879c-.517-3.064.102-6.591 1.931-9.14 1.608-2.24 3.853-3.482 6.542-3.911ZM259.582 59.64a2.544 2.544 0 0 0-.228.019c-3.892.459-7.397 2.343-9.844 5.432-2.792 3.527-3.75 7.998-3.199 12.42a14.642 14.642 0 0 0 5.518 9.837c3.648 2.834 8.273 3.554 12.78 2.938 2.608-.358 6.527-1.606 8.194-3.777.469-.609.705-1.353.597-2.122-.076-.54-.313-1.056-.758-1.388-.511-.38-1.192-.428-1.799-.31-.843.165-1.599.687-2.316 1.181a30.05 30.05 0 0 1-.449.306c-3.147 1.635-6.638 2.404-10.101 1.282a9.653 9.653 0 0 1-5.643-4.907c-.598-1.19-.895-2.454-1.159-3.75h14.855c.618 0 1.281.022 1.963.044 1.761.056 3.647.117 5.201-.162a2.333 2.333 0 0 0 1.188-.63c.73-.71.86-1.718.838-2.69-.083-3.722-1.831-7.393-4.538-9.91-3.126-2.908-6.896-4.002-11.1-3.812Zm.458 4.65a9.229 9.229 0 0 1 6.386 1.619c2.221 1.578 3.388 3.82 3.855 6.457-1.883.023-3.768.018-5.653.013-.942-.003-1.885-.005-2.826-.005l-10.447.014c.478-1.607 1.033-3.067 2.061-4.414 1.656-2.169 3.949-3.332 6.624-3.683Z"/>
  <path fill="#030A06" d="M176.848 48.593c5.576-.133 11.182-.01 16.761-.02 3.178-.005 7.237-.263 10.322.055.496.052.892.192 1.269.522.537.47.895 1.177.914 1.894.016.647-.381 1.39-.848 1.825-.357.33-.783.462-1.253.538-1.284.208-2.702.086-4.005.085l-6.922-.012-.003 25.69c.01 2.165.284 6.887-.042 8.729-.103.578-.312 1.154-.711 1.598-.428.475-1.018.715-1.653.729-.665.015-1.314-.131-1.794-.615-.564-.566-.772-1.399-.841-2.172-.128-1.425-.011-2.934.005-4.367.025-2.12.006-4.241.004-6.36l.017-23.237c-2.303.011-10.272.378-11.903-.362-.597-.27-.971-.687-1.187-1.307-.231-.66-.126-1.364.208-1.969.39-.709.911-1.013 1.662-1.244ZM140.377 59.66c2.071-.118 4.095.015 6.106.553 2.123.569 5.371 1.821 6.469 3.836.302.555.459 1.219.246 1.832-.218.626-.812 1.104-1.411 1.35-1.746.716-3.933-1.69-5.576-2.31-2.671-1.007-5.884-.951-8.484.262-2.388 1.115-4.105 3.227-4.994 5.68-1.032 2.846-1.119 6.558.191 9.332 1.215 2.57 3.45 4.367 6.101 5.304 3.034 1.073 6.194.502 9.029-.858.879-.475 1.676-1.11 2.677-1.316.518-.107 1.028-.05 1.469.255.543.376.982 1.12 1.054 1.777.068.616-.172 1.183-.554 1.656-1.659 2.056-5.35 3.09-7.863 3.397-4.36.535-8.902-.339-12.392-3.121a15.23 15.23 0 0 1-5.776-10.502 15.79 15.79 0 0 1 3.37-11.502c2.626-3.229 6.21-5.184 10.338-5.625ZM233.509 51.86c.087-.004.173-.008.259-.01.773-.025 1.55.182 2.096.752 1.304 1.362.786 5.95.771 7.829 1.774.01 6.093-.541 7.424.642.481.43.677 1.024.678 1.658.003.614-.156 1.203-.613 1.637-1.243 1.178-5.732.714-7.492.703.016 3.773-.494 15.404.669 18.267 1.88 4.63 5.955.558 8.279 1.652.497.235.905.73 1.089 1.245.262.733.029 1.389-.273 2.062-.051.058-.103.113-.155.17-1.404 1.462-4.042 1.814-5.979 1.841-2.248.033-4.373-.349-6.033-2.012-1.2-1.202-1.946-2.852-2.311-4.493-.564-2.536-.331-5.343-.33-7.928l.007-10.8c-1.363-.001-2.728-.01-4.091-.032a4.477 4.477 0 0 1-.642-.464c-.539-.485-.784-1.21-.803-1.922-.016-.597.166-1.186.612-1.599 1.101-1.02 3.524-.654 4.924-.63-.004-1.964-.435-5.487.307-7.215.329-.768.868-1.046 1.607-1.352Z"/>
  <path fill="#030A06" fill-rule="evenodd" d="M125.356 51.124c-2.349-.231-13.846-.15-17.834-.09-.734.01-1.414.06-2.011.104-.508.037-.957.07-1.327.071 0 0-1.587.372-2.102 1.087-.336.469-.451 1.063-.531 1.622-.426 2.97-.676 6-.924 9.02-.131 1.59-.262 3.176-.418 4.75l-1.512 15.266c-.04.409-.11.966-.19 1.598-.256 2.045-.61 4.877-.381 6.005.127.625.458 1.14 1.01 1.466.546.322 1.163.505 1.784.61h.006c1.282-.003 3.216.017 5.377.04 4.481.046 15.875.102 18.524-.012.529-.023 1.089-.068 1.587-.256.668-.253 1.218-.737 1.482-1.41.267-.678.208-1.438-.094-2.092-.304-.66-.714-1.011-1.402-1.232h-22.901c.382-3.372.724-6.748 1.025-10.127l.27-2.748.026-.272.695.01c2.332.035 13.685.117 15.131-.099.531-.079 1.027-.212 1.416-.603.502-.507.711-1.208.67-1.912-.036-.597-.3-1.247-.754-1.649a2.062 2.062 0 0 0-1.079-.496c-1.352-.197-11.445-.144-13.993-.11-.683.008-1.251.015-1.618.016l1.161-13.696h12.358c.631 0 1.287.021 1.953.043 1.613.051 3.285.105 4.785-.128.533-.082.991-.264 1.378-.653.474-.475.733-1.195.696-1.863-.037-.682-.404-1.33-.937-1.75-.406-.318-.817-.461-1.326-.51Z" clip-rule="evenodd"/>
</svg>
