<svg xmlns="http://www.w3.org/2000/svg" aria-hidden="true" style="position:absolute;width:0;height:0;overflow:hidden">
  <defs>
<symbol id="icon-footer_logo" viewBox="0 0 73 32">
<path d="M12.561 2.469c-0.141 0-0.289 0-0.428 0.017-1.617 0.135-3.104 0.822-4.162 2.074-1.152 1.362-1.431 2.797-1.417 4.532l-3.082-0.005c-0.138-0-0.281-0.004-0.425-0.008-0.402-0.011-0.82-0.023-1.196 0.046-0.227 0.042-0.425 0.152-0.585 0.318-0.28 0.291-0.286 0.659-0.268 1.036 0.029 0.594 0.080 1.189 0.131 1.783 0.028 0.323 0.055 0.646 0.080 0.969l0.511 6.609 0.249 3.191c0.012 0.158 0.022 0.317 0.032 0.476 0.035 0.571 0.071 1.151 0.222 1.697 0.26 0.929 0.777 1.766 1.49 2.416 0.623 0.566 1.377 0.97 2.193 1.175 0.691 0.167 1.493 0.148 2.247 0.13 0.224-0.005 0.444-0.011 0.656-0.011l7.772 0.001c0.198 0 0.402 0.005 0.608 0.010 0.669 0.016 1.367 0.033 1.992-0.113 0.88-0.205 1.77-0.688 2.412-1.325 0.598-0.593 1.075-1.384 1.284-2.202 0.16-0.626 0.2-1.312 0.239-1.978 0.012-0.215 0.025-0.427 0.041-0.635l0.34-4.377 0.424-5.374c0.021-0.265 0.047-0.534 0.074-0.803 0.058-0.583 0.116-1.17 0.114-1.746-0.001-0.354-0.076-0.685-0.329-0.948-0.175-0.181-0.46-0.27-0.702-0.309-0.362-0.059-0.759-0.049-1.144-0.038-0.142 0.004-0.282 0.007-0.418 0.008-0.969-0.002-1.939 0.002-2.908 0.010l-0.042 0.001c0.023-1.857-0.391-3.451-1.726-4.809-1.116-1.156-2.651-1.812-4.257-1.819l-0.020 0zM18.434 13.062l0.052 0.003c0.001 0.004 0.003 0.007 0.004 0.010 0.001 0.002 0.001 0.003 0.002 0.005 0.002 0.006 0.004 0.010 0.006 0.014l0.002 0.005c0.010 0.022 0.011 0.026 0.011 0.061-0.017 2.277-0.626 5.209-2.242 6.877-1.497 1.544-3.821 2.302-5.94 2.344 0.987-1.857 2.574-3.618 4.21-4.926 0.253-0.202 0.518-0.385 0.783-0.568 0.171-0.118 0.341-0.235 0.509-0.358 0.163-0.119 0.382-0.282 0.405-0.499 0.021-0.201-0.086-0.356-0.211-0.5-0.176-0.102-0.305-0.145-0.506-0.086-0.285 0.084-0.573 0.295-0.832 0.485-0.069 0.050-0.136 0.099-0.2 0.144-2.098 1.486-3.842 3.417-5.106 5.656-0.043-1.821 0.372-3.347 1.489-4.812 1.676-2.199 4.885-3.491 7.563-3.856zM2.146 10.227l20.817-0c-0.074 0.701-0.122 1.409-0.17 2.115-0.027 0.394-0.053 0.787-0.084 1.179l-0.561 7.024-0.21 2.588c-0.009 0.112-0.018 0.225-0.026 0.339-0.034 0.447-0.068 0.897-0.154 1.334-0.088 0.449-0.26 0.839-0.493 1.23-0.090 0.136-0.187 0.267-0.292 0.393-0.604 0.721-1.594 1.258-2.535 1.329-0.512 0.039-1.040 0.029-1.562 0.019-0.226-0.004-0.451-0.008-0.674-0.008l-7.756 0c-0.166 0-0.334 0.004-0.504 0.007-0.521 0.011-1.055 0.022-1.556-0.065-0.657-0.115-1.271-0.404-1.777-0.838-0.607-0.511-1.042-1.196-1.247-1.963-0.14-0.508-0.176-1.049-0.21-1.581-0.009-0.133-0.017-0.266-0.027-0.398l-0.204-2.634-0.775-10.072zM18.896 11.841l-0.015 0.002c-3.16 0.366-6.757 1.665-8.8 4.225-1.313 1.645-2.030 3.785-1.793 5.892 0.052 0.463 0.157 0.905 0.308 1.345-0.017 0.044-0.038 0.096-0.062 0.156-0.259 0.652-0.862 2.167-0.652 2.615 0.061 0.13 0.184 0.216 0.318 0.259 0.055 0.017 0.111 0.027 0.168 0.034 0.177-0.029 0.341-0.066 0.447-0.224 0.114-0.17 0.232-0.579 0.332-0.929 0.048-0.167 0.092-0.32 0.13-0.428 0.13-0.369 0.277-0.732 0.424-1.094l0.002-0.004c0.017-0.042 0.034-0.085 0.052-0.127 2.606 0.008 5.389-0.808 7.274-2.668 2.108-2.081 2.639-5.435 2.643-8.274 0-0.224-0.015-0.489-0.179-0.661-0.101-0.105-0.252-0.137-0.393-0.134-0.068 0.002-0.136 0.009-0.203 0.016zM12.307 3.607c0.101-0.006 0.202-0.012 0.303-0.011 1.238 0.009 2.477 0.562 3.347 1.435 1.184 1.188 1.427 2.448 1.429 4.060l-9.638 0.004c-0.039-1.386 0.184-2.651 1.093-3.746 0.873-1.051 2.12-1.622 3.466-1.742z"></path>
<path d="M18.486 13.065l-0.052-0.003c-2.678 0.365-5.887 1.657-7.563 3.856-1.117 1.465-1.532 2.991-1.489 4.812 1.264-2.239 3.007-4.17 5.106-5.656 0.064-0.045 0.131-0.094 0.2-0.144 0.259-0.19 0.547-0.402 0.832-0.485 0.201-0.059 0.33-0.016 0.506 0.086 0.126 0.143 0.232 0.299 0.211 0.5-0.023 0.218-0.242 0.38-0.405 0.499-0.168 0.123-0.338 0.241-0.509 0.358-0.265 0.183-0.53 0.365-0.783 0.568-1.636 1.308-3.223 3.069-4.21 4.926 2.12-0.042 4.444-0.8 5.94-2.344 1.616-1.668 2.226-4.6 2.242-6.877 0-0.035-0.001-0.039-0.011-0.061-0.002-0.005-0.005-0.012-0.008-0.019-0.002-0.004-0.004-0.009-0.006-0.015zM18.881 11.843l0.015-0.002c0.068-0.007 0.136-0.014 0.203-0.016 0.141-0.003 0.292 0.029 0.393 0.134 0.164 0.171 0.179 0.437 0.179 0.661-0.004 2.839-0.535 6.194-2.643 8.274-1.885 1.86-4.668 2.676-7.274 2.668-0.017 0.042-0.034 0.085-0.052 0.127l-0.002 0.004c-0.147 0.362-0.295 0.725-0.424 1.094-0.038 0.108-0.082 0.261-0.13 0.428-0.1 0.35-0.217 0.759-0.332 0.93-0.107 0.158-0.27 0.195-0.447 0.224-0.057-0.007-0.113-0.017-0.168-0.034-0.134-0.043-0.257-0.13-0.318-0.259-0.21-0.448 0.393-1.963 0.653-2.615 0.024-0.060 0.045-0.112 0.062-0.156-0.151-0.44-0.256-0.882-0.308-1.345-0.237-2.107 0.48-4.247 1.793-5.892 2.043-2.56 5.64-3.86 8.8-4.225z"></path>
<path d="M18.897 11.841l-0.015 0.002c-3.16 0.366-6.757 1.665-8.8 4.225-1.313 1.645-2.030 3.785-1.793 5.892 0.052 0.463 0.157 0.905 0.308 1.345-0.017 0.044-0.038 0.096-0.062 0.156-0.259 0.652-0.862 2.167-0.652 2.615 0.061 0.129 0.184 0.216 0.318 0.259 0.055 0.017 0.111 0.027 0.168 0.034 0.177-0.029 0.341-0.066 0.447-0.224 0.114-0.17 0.232-0.579 0.332-0.929 0.048-0.167 0.092-0.32 0.13-0.428 0.13-0.369 0.277-0.732 0.424-1.094 0.001-0.001 0.001-0.003 0.002-0.004 0.017-0.042 0.034-0.085 0.052-0.127 2.606 0.008 5.389-0.808 7.274-2.668 2.108-2.081 2.639-5.435 2.643-8.274 0-0.224-0.015-0.489-0.179-0.661-0.101-0.105-0.252-0.137-0.393-0.134-0.068 0.002-0.136 0.009-0.203 0.016zM18.434 13.062l0.052 0.003c0.002 0.005 0.004 0.010 0.006 0.015 0.003 0.008 0.006 0.014 0.008 0.019 0.010 0.022 0.011 0.026 0.011 0.061-0.017 2.277-0.626 5.209-2.242 6.877-1.497 1.544-3.821 2.302-5.94 2.344 0.987-1.857 2.574-3.618 4.21-4.926 0.253-0.202 0.518-0.385 0.783-0.568 0.171-0.118 0.341-0.235 0.509-0.358 0.163-0.119 0.382-0.282 0.405-0.499 0.021-0.201-0.086-0.356-0.211-0.5-0.176-0.102-0.305-0.145-0.506-0.086-0.285 0.084-0.573 0.295-0.832 0.485-0.069 0.050-0.136 0.1-0.2 0.144-2.098 1.486-3.842 3.417-5.106 5.656-0.043-1.821 0.372-3.347 1.489-4.812 1.676-2.199 4.885-3.491 7.563-3.856z"></path>
<path d="M59.585 19.558c-0.079-2.238-1.957-3.989-4.195-3.91s-3.989 1.957-3.911 4.196c0.079 2.239 1.958 3.989 4.196 3.91s3.989-1.958 3.91-4.196zM55.531 16.865c0.653 0.026 1.182 0.183 1.68 0.624 0.593 0.525 0.924 1.283 0.967 2.069s-0.204 1.583-0.739 2.169c-0.489 0.535-1.099 0.775-1.814 0.811-0.652-0.007-1.19-0.108-1.705-0.536-0.601-0.5-0.941-1.24-1.005-2.012-0.066-0.803 0.144-1.633 0.677-2.249 0.529-0.611 1.153-0.821 1.938-0.875z"></path>
<path d="M48.314 19.222c-0.267-2.226-2.289-3.812-4.514-3.541-2.219 0.27-3.801 2.286-3.535 4.506s2.279 3.805 4.499 3.543c2.226-0.263 3.816-2.282 3.55-4.508zM43.929 16.898c0.649-0.053 1.237 0.015 1.786 0.393 0.616 0.423 1.003 1.077 1.131 1.808 0.145 0.83 0.009 1.717-0.49 2.408-0.437 0.605-0.983 0.906-1.71 1.022-0.664 0.034-1.251-0.006-1.811-0.402-0.604-0.425-1.010-1.076-1.128-1.804-0.136-0.804 0.027-1.729 0.507-2.397 0.422-0.587 1.011-0.913 1.716-1.026z"></path>
<path d="M68.087 15.643c-0.020 0.001-0.040 0.002-0.060 0.005-1.021 0.12-1.94 0.615-2.582 1.425-0.732 0.925-0.984 2.098-0.839 3.258 0.118 1.019 0.64 1.948 1.447 2.58 0.957 0.743 2.17 0.932 3.352 0.771 0.684-0.094 1.712-0.421 2.149-0.99 0.123-0.16 0.185-0.355 0.157-0.557-0.020-0.142-0.082-0.277-0.199-0.364-0.134-0.1-0.313-0.112-0.472-0.081-0.221 0.043-0.419 0.18-0.607 0.31-0.040 0.027-0.079 0.054-0.118 0.080-0.825 0.429-1.741 0.631-2.649 0.336-0.646-0.213-1.18-0.677-1.48-1.287-0.157-0.312-0.235-0.644-0.304-0.984h3.896c0.162 0 0.336 0.006 0.515 0.012 0.462 0.015 0.957 0.031 1.364-0.042 0.116-0.021 0.227-0.083 0.312-0.165 0.191-0.187 0.226-0.451 0.22-0.706-0.022-0.976-0.48-1.939-1.19-2.599-0.82-0.763-1.809-1.049-2.911-1zM68.207 16.863c0.591-0.069 1.188 0.082 1.675 0.424 0.583 0.414 0.889 1.002 1.011 1.694-0.494 0.006-0.988 0.005-1.483 0.003-0.247-0.001-0.494-0.001-0.741-0.001l-2.74 0.004c0.125-0.422 0.271-0.805 0.541-1.158 0.434-0.569 1.036-0.874 1.737-0.966z"></path>
<path d="M46.386 12.746c1.463-0.035 2.933-0.003 4.396-0.005 0.834-0.001 1.898-0.069 2.707 0.014 0.13 0.014 0.234 0.050 0.333 0.137 0.141 0.123 0.235 0.309 0.24 0.497 0.004 0.17-0.1 0.365-0.222 0.479-0.094 0.087-0.205 0.121-0.329 0.141-0.337 0.054-0.709 0.023-1.050 0.022l-1.816-0.003-0.001 6.739c0.003 0.568 0.075 1.806-0.011 2.289-0.027 0.152-0.082 0.303-0.187 0.419-0.112 0.125-0.267 0.188-0.434 0.191-0.174 0.004-0.345-0.034-0.471-0.161-0.148-0.148-0.203-0.367-0.221-0.57-0.034-0.374-0.003-0.77 0.001-1.146 0.007-0.556 0.002-1.112 0.001-1.668l0.004-6.095c-0.604 0.003-2.694 0.099-3.122-0.095-0.157-0.071-0.255-0.18-0.311-0.343-0.061-0.173-0.033-0.358 0.055-0.516 0.102-0.186 0.239-0.266 0.436-0.326z"></path>
<path d="M36.82 15.648c0.543-0.031 1.074 0.004 1.602 0.145 0.557 0.149 1.409 0.478 1.697 1.006 0.079 0.146 0.12 0.32 0.065 0.481-0.057 0.164-0.213 0.29-0.37 0.354-0.458 0.188-1.032-0.443-1.463-0.606-0.701-0.264-1.543-0.25-2.225 0.069-0.626 0.293-1.077 0.846-1.31 1.49-0.271 0.747-0.294 1.72 0.050 2.448 0.319 0.674 0.905 1.146 1.6 1.391 0.796 0.281 1.625 0.132 2.368-0.225 0.231-0.125 0.44-0.291 0.702-0.345 0.136-0.028 0.27-0.013 0.385 0.067 0.142 0.099 0.258 0.294 0.276 0.466 0.018 0.162-0.045 0.31-0.145 0.434-0.435 0.539-1.403 0.81-2.062 0.891-1.144 0.14-2.335-0.089-3.25-0.819-0.86-0.673-1.408-1.668-1.515-2.755-0.113-1.083 0.204-2.166 0.884-3.017 0.689-0.847 1.629-1.36 2.712-1.476z"></path>
<path d="M61.248 13.603c0.023-0.001 0.045-0.002 0.068-0.003 0.203-0.006 0.407 0.048 0.55 0.197 0.342 0.357 0.206 1.561 0.202 2.053 0.465 0.003 1.598-0.142 1.947 0.168 0.126 0.113 0.178 0.268 0.178 0.435 0.001 0.161-0.041 0.316-0.161 0.429-0.326 0.309-1.503 0.187-1.965 0.184 0.004 0.99-0.13 4.040 0.175 4.791 0.493 1.214 1.562 0.146 2.172 0.433 0.13 0.061 0.237 0.191 0.286 0.326 0.069 0.192 0.008 0.364-0.072 0.541-0.013 0.015-0.027 0.030-0.041 0.044-0.368 0.384-1.060 0.476-1.568 0.483-0.59 0.009-1.147-0.092-1.582-0.528-0.315-0.315-0.51-0.748-0.606-1.179-0.148-0.665-0.087-1.401-0.087-2.080l0.002-2.833c-0.358-0-0.716-0.003-1.073-0.009-0.059-0.037-0.116-0.075-0.168-0.122-0.141-0.127-0.206-0.317-0.211-0.504-0.004-0.157 0.044-0.311 0.161-0.419 0.289-0.267 0.924-0.172 1.292-0.165-0.001-0.515-0.114-1.439 0.081-1.893 0.086-0.201 0.228-0.274 0.422-0.355z"></path>
<path d="M32.88 13.409c-0.616-0.061-3.632-0.039-4.678-0.024-0.193 0.003-0.371 0.016-0.527 0.027-0.133 0.010-0.251 0.018-0.348 0.019 0 0-0.416 0.098-0.551 0.285-0.088 0.123-0.118 0.279-0.139 0.425-0.112 0.779-0.177 1.574-0.242 2.366-0.034 0.417-0.069 0.833-0.11 1.246l-0.397 4.004c-0.011 0.107-0.029 0.253-0.050 0.419-0.067 0.536-0.16 1.279-0.1 1.575 0.033 0.164 0.12 0.299 0.265 0.385 0.143 0.084 0.305 0.132 0.468 0.16h0.002c0.336-0.001 0.844 0.005 1.41 0.010 1.175 0.012 4.164 0.027 4.859-0.003 0.139-0.006 0.286-0.018 0.416-0.067 0.175-0.067 0.319-0.193 0.389-0.37 0.070-0.178 0.055-0.377-0.025-0.549-0.080-0.173-0.187-0.265-0.368-0.323h-6.007c0.1-0.884 0.19-1.77 0.269-2.656l0.071-0.721 0.007-0.071c0.047 0.001 0.109 0.002 0.182 0.003 0.612 0.009 3.59 0.031 3.969-0.026 0.139-0.021 0.269-0.056 0.371-0.158 0.132-0.133 0.187-0.317 0.176-0.501-0.009-0.157-0.079-0.327-0.198-0.433-0.079-0.070-0.178-0.116-0.283-0.13-0.355-0.052-3.002-0.038-3.67-0.029-0.179 0.002-0.328 0.004-0.424 0.004l0.305-3.592h3.241c0.166 0 0.338 0.006 0.512 0.011 0.423 0.014 0.862 0.028 1.255-0.033 0.14-0.021 0.26-0.069 0.361-0.171 0.124-0.125 0.192-0.314 0.183-0.489-0.010-0.179-0.106-0.349-0.246-0.459-0.106-0.084-0.214-0.121-0.348-0.134z"></path>
</symbol>
<symbol id="icon-instagram" viewBox="0 0 31 32">
<path d="M15.513 6.319c3.109 0 3.477 0.014 4.699 0.068 1.137 0.050 1.75 0.241 2.159 0.4 0.541 0.209 0.931 0.464 1.336 0.868 0.409 0.409 0.659 0.796 0.873 1.337 0.159 0.409 0.35 1.027 0.4 2.159 0.055 1.227 0.068 1.595 0.068 4.7s-0.014 3.477-0.068 4.7c-0.050 1.137-0.241 1.75-0.4 2.159-0.209 0.541-0.463 0.931-0.868 1.336-0.409 0.409-0.796 0.659-1.336 0.873-0.409 0.159-1.028 0.35-2.159 0.4-1.227 0.055-1.595 0.068-4.7 0.068s-3.477-0.014-4.7-0.068c-1.137-0.050-1.75-0.241-2.159-0.4-0.541-0.209-0.931-0.463-1.337-0.868-0.409-0.409-0.659-0.796-0.873-1.336-0.159-0.409-0.35-1.027-0.4-2.159-0.055-1.228-0.068-1.595-0.068-4.7s0.014-3.477 0.068-4.7c0.050-1.137 0.241-1.75 0.4-2.159 0.209-0.541 0.464-0.931 0.868-1.337 0.409-0.409 0.796-0.659 1.337-0.873 0.409-0.159 1.027-0.35 2.159-0.4 1.222-0.055 1.591-0.068 4.7-0.068h0.001zM15.513 4.224c-3.159 0-3.554 0.014-4.795 0.068-1.236 0.055-2.086 0.255-2.822 0.541-0.768 0.3-1.418 0.695-2.063 1.345-0.65 0.646-1.046 1.295-1.345 2.059-0.287 0.741-0.487 1.586-0.541 2.822-0.055 1.246-0.068 1.641-0.068 4.799s0.014 3.554 0.068 4.795c0.055 1.236 0.255 2.086 0.541 2.822 0.3 0.768 0.695 1.418 1.345 2.063 0.645 0.645 1.295 1.046 2.059 1.341 0.741 0.287 1.586 0.486 2.822 0.541 1.241 0.055 1.636 0.068 4.795 0.068s3.554-0.014 4.795-0.068c1.236-0.055 2.086-0.254 2.822-0.541 0.763-0.295 1.414-0.695 2.059-1.341s1.046-1.295 1.341-2.059c0.287-0.741 0.486-1.586 0.541-2.822 0.055-1.241 0.068-1.636 0.068-4.795s-0.014-3.554-0.068-4.795c-0.055-1.236-0.255-2.086-0.541-2.822-0.286-0.773-0.682-1.422-1.331-2.068-0.645-0.645-1.295-1.046-2.059-1.341-0.741-0.287-1.586-0.486-2.822-0.541-1.245-0.059-1.64-0.073-4.799-0.073l-0.001 0.001z"></path>
<path d="M15.513 9.883c-3.299 0-5.977 2.677-5.977 5.977s2.677 5.977 5.977 5.977c3.3 0 5.977-2.677 5.977-5.977s-2.677-5.977-5.977-5.977zM15.513 19.736c-2.141 0-3.877-1.736-3.877-3.877s1.736-3.877 3.877-3.877c2.141 0 3.877 1.736 3.877 3.877s-1.736 3.877-3.877 3.877z"></path>
<path d="M23.12 9.646c0 0.771-0.625 1.395-1.395 1.395s-1.395-0.625-1.395-1.395c0-0.771 0.625-1.395 1.395-1.395s1.395 0.625 1.395 1.395z"></path>
</symbol>
<symbol id="icon-linkedin" viewBox="0 0 31 32">
<path d="M24.97 4.223h-18.909c-1.2 0-2.182 0.982-2.182 2.182v18.909c0 1.2 0.982 2.182 2.182 2.182h18.909c1.2 0 2.182-0.982 2.182-2.182v-18.909c0-1.2-0.982-2.182-2.182-2.182zM12.606 23.133h-2.909v-10.182h2.909v10.182zM11.152 11.496c-0.804 0-1.455-0.65-1.455-1.455s0.65-1.455 1.455-1.455c0.804 0 1.455 0.65 1.455 1.455s-0.65 1.455-1.455 1.455zM22.788 23.133h-2.909v-5.818c0-0.804-0.65-1.455-1.455-1.455s-1.455 0.65-1.455 1.455v5.818h-2.909v-10.182h2.909v1.804c0.6-0.822 1.518-1.804 2.545-1.804 1.809 0 3.273 1.628 3.273 3.636v6.545z"></path>
</symbol>
<symbol id="icon-youtube" viewBox="0 0 31 32">
<path d="M27.919 9.658c-0.147-0.546-0.435-1.045-0.835-1.445s-0.897-0.69-1.443-0.838c-2.025-0.556-10.125-0.565-10.125-0.565s-8.099-0.009-10.125 0.522c-0.546 0.155-1.042 0.448-1.442 0.851s-0.689 0.901-0.841 1.448c-0.534 2.025-0.539 6.224-0.539 6.224s-0.005 4.22 0.525 6.224c0.297 1.108 1.17 1.983 2.279 2.282 2.045 0.556 10.124 0.565 10.124 0.565s8.1 0.009 10.125-0.521c0.546-0.148 1.044-0.436 1.445-0.836s0.69-0.897 0.84-1.443c0.535-2.023 0.539-6.222 0.539-6.222s0.026-4.221-0.526-6.246zM12.925 19.745l0.007-7.758 6.732 3.885-6.739 3.872z"></path>
</symbol>
 </defs>
</svg>