<svg xmlns="http://www.w3.org/2000/svg" width="32" height="33" fill="none">
  <path fill="#000" d="M15.998 6.517c3.206 0 3.585.014 4.846.07 1.172.052 1.804.248 2.226.413.558.216.96.478 1.378.895.422.422.679.82.9 1.378.164.423.36 1.06.412 2.227.056 1.266.07 1.645.07 4.846 0 3.202-.014 3.586-.07 4.847-.052 1.172-.248 1.804-.413 2.226-.216.558-.477.961-.895 1.378-.422.422-.82.68-1.377.9-.423.164-1.06.36-2.227.412-1.266.057-1.645.07-4.846.07-3.202 0-3.586-.013-4.847-.07-1.172-.051-1.804-.248-2.227-.412a3.713 3.713 0 0 1-1.378-.895 3.764 3.764 0 0 1-.9-1.378c-.164-.422-.36-1.06-.412-2.226-.056-1.266-.07-1.646-.07-4.847 0-3.201.014-3.585.07-4.847.052-1.172.248-1.804.412-2.226.216-.558.479-.96.896-1.379A3.76 3.76 0 0 1 8.924 7c.422-.164 1.059-.36 2.226-.412 1.261-.056 1.641-.07 4.847-.07Zm0-2.16c-3.258 0-3.665.013-4.945.07-1.275.056-2.152.262-2.91.558a5.846 5.846 0 0 0-2.128 1.387 5.874 5.874 0 0 0-1.387 2.123c-.296.764-.502 1.635-.558 2.91-.056 1.285-.07 1.692-.07 4.95 0 3.257.014 3.664.07 4.944.056 1.275.262 2.152.558 2.91.31.793.717 1.463 1.387 2.128a5.865 5.865 0 0 0 2.123 1.383c.764.296 1.636.502 2.91.558 1.28.056 1.688.07 4.945.07 3.258 0 3.666-.014 4.945-.07 1.275-.056 2.152-.262 2.91-.558a5.855 5.855 0 0 0 2.123-1.383 5.87 5.87 0 0 0 1.383-2.123c.296-.764.502-1.635.558-2.91.056-1.28.07-1.687.07-4.945 0-3.257-.014-3.665-.07-4.945-.056-1.275-.262-2.151-.558-2.91a5.629 5.629 0 0 0-1.373-2.133 5.865 5.865 0 0 0-2.123-1.383c-.764-.295-1.635-.501-2.91-.558-1.284-.06-1.692-.075-4.95-.075v.001Z"/>
  <path fill="#000" d="M15.997 10.191a6.165 6.165 0 1 0 6.163 6.163 6.165 6.165 0 0 0-6.163-6.163Zm0 10.161a3.998 3.998 0 1 1 0-7.995 3.998 3.998 0 0 1 0 7.995ZM23.842 9.948a1.439 1.439 0 1 1-2.878 0 1.439 1.439 0 0 1 2.878 0Z"/>
</svg>
