<svg xmlns="http://www.w3.org/2000/svg" width="32" height="33" fill="none">
  <path fill="#000" d="M25.75 4.355H6.25A2.257 2.257 0 0 0 4 6.605v19.5a2.257 2.257 0 0 0 2.25 2.25h19.5a2.257 2.257 0 0 0 2.25-2.25v-19.5a2.257 2.257 0 0 0-2.25-2.25ZM13 23.855h-3v-10.5h3v10.5Zm-1.5-12c-.83 0-1.5-.67-1.5-1.5 0-.829.67-1.5 1.5-1.5s1.5.671 1.5 1.5c0 .83-.67 1.5-1.5 1.5Zm12 12h-3v-6c0-.829-.67-1.5-1.5-1.5s-1.5.671-1.5 1.5v6h-3v-10.5h3v1.861c.619-.848 1.565-1.86 2.625-1.86 1.866 0 3.375 1.678 3.375 3.75v6.75Z"/>
</svg>
