<svg viewBox="0 0 112 48" fill="none" xmlns="http://www.w3.org/2000/svg">
  <path d="M19.5506 3.3334C19.337 3.33358 19.1118 3.33376 18.9008 3.35894C16.4473 3.56361 14.1927 4.60584 12.5871 6.50455C10.8397 8.57084 10.4172 10.7479 10.4377 13.3784L5.76333 13.3713C5.55396 13.3711 5.33752 13.3651 5.11803 13.359C4.50817 13.3421 3.87472 13.3246 3.30343 13.4293C2.9589 13.4924 2.65827 13.66 2.41598 13.9122C1.99178 14.3538 1.98147 14.9116 2.00903 15.4831C2.05251 16.3841 2.12989 17.2863 2.20719 18.1875C2.24924 18.6777 2.2913 19.168 2.32784 19.6576L3.10367 29.6823L3.48116 34.5233C3.49975 34.7623 3.5146 35.0037 3.52952 35.246C3.58283 36.1124 3.63692 36.9915 3.86565 37.8203C4.26078 39.2297 5.0439 40.4995 6.12575 41.4858C7.07124 42.3443 8.21406 42.9569 9.45289 43.2685C10.5007 43.5214 11.718 43.4928 12.8615 43.4659C13.2019 43.4579 13.5356 43.4501 13.8565 43.4498L20.1492 43.4479L25.645 43.4503C25.9453 43.4503 26.2543 43.4577 26.5672 43.4651C27.5823 43.4892 28.6404 43.5144 29.589 43.2933C30.9235 42.9826 32.274 42.25 33.2482 41.2841C34.1549 40.3847 34.8792 39.184 35.1957 37.9433C35.4379 36.9942 35.4987 35.9532 35.5576 34.9433C35.5766 34.6178 35.5954 34.2953 35.6201 33.9803L36.1359 27.3409L36.779 19.1888C36.8102 18.7861 36.8504 18.3792 36.8908 17.9714C36.9783 17.0874 37.0664 16.1969 37.0644 15.3233C37.0634 14.786 36.9497 14.2847 36.5647 13.8857C36.2997 13.6107 35.8666 13.4765 35.5 13.4167C34.9506 13.3271 34.3481 13.3431 33.7653 13.3585C33.5498 13.3642 33.337 13.3699 33.1306 13.3701C31.6605 13.3672 30.1899 13.3724 28.7198 13.3856L28.6566 13.3865C28.6911 10.5695 28.064 8.15213 26.0388 6.09182C24.3465 4.33842 22.0179 3.34358 19.5814 3.33337L19.5506 3.3334ZM28.4597 19.402L28.539 19.4065C28.5411 19.4119 28.543 19.4169 28.5449 19.4216C28.5459 19.424 28.5469 19.4264 28.5478 19.4286C28.5513 19.437 28.5544 19.4443 28.5571 19.4506L28.5605 19.4582C28.575 19.4911 28.5776 19.4971 28.5769 19.5501C28.5516 23.0044 27.627 27.4518 25.1754 29.9816C22.9051 32.3243 19.3796 33.4739 16.1646 33.5376C17.6621 30.7211 20.0685 28.05 22.5507 26.0661C22.9346 25.7596 23.3364 25.4825 23.7386 25.2052C23.9975 25.0267 24.2565 24.8481 24.5108 24.6615C24.7578 24.4803 25.0903 24.2344 25.1253 23.9039C25.1574 23.5996 24.9955 23.3634 24.805 23.146C24.5381 22.9912 24.3426 22.9267 24.0378 23.0161C23.6051 23.1431 23.169 23.4633 22.7755 23.7522C22.6713 23.8288 22.5699 23.9032 22.4725 23.9712C19.2897 26.2249 16.6451 29.1548 14.728 32.5507C14.6633 29.7878 15.2925 27.4733 16.987 25.2509C19.5299 21.9156 24.3971 19.9555 28.4597 19.402ZM3.75276 15.1016L35.3299 15.1011C35.2178 16.1646 35.1452 17.2378 35.0727 18.3093C35.0323 18.9063 34.992 19.5033 34.9448 20.0975L34.0946 30.7522L33.7766 34.6784C33.7625 34.8489 33.7496 35.0202 33.7366 35.192C33.6856 35.8693 33.6341 36.5529 33.5034 37.2161C33.3693 37.8967 33.1087 38.4883 32.7557 39.0819C32.6196 39.2885 32.4718 39.4873 32.3134 39.6774C31.398 40.7712 29.8953 41.586 28.468 41.6939C27.6908 41.7526 26.8911 41.7379 26.0989 41.7233C25.7561 41.717 25.4145 41.7107 25.0767 41.7104L18.5255 41.7085L13.3123 41.7109C13.0609 41.711 12.805 41.7163 12.5471 41.7217C11.7565 41.738 10.947 41.7548 10.1871 41.6239C9.19041 41.4499 8.25897 41.0109 7.49092 40.3526C6.57091 39.5768 5.91063 38.5379 5.59911 37.3755C5.38601 36.6051 5.33287 35.7842 5.28069 34.9781C5.26758 34.7757 5.25454 34.5742 5.23903 34.3746L4.92897 30.3797L3.75276 15.1016ZM29.1609 17.5507L29.1374 17.5532C24.3441 18.1077 18.8872 20.0792 15.7889 23.962C13.7975 26.4575 12.7095 29.7034 13.0688 32.8997C13.1477 33.6016 13.3067 34.2725 13.5358 34.94C13.5099 35.0063 13.4783 35.0857 13.4423 35.1762C13.0489 36.1649 12.1346 38.463 12.4526 39.1426C12.5445 39.339 12.7319 39.4708 12.9351 39.5354C13.0188 39.5617 13.1031 39.5768 13.1902 39.587C13.4587 39.5427 13.707 39.4873 13.8686 39.2472C14.0422 38.9887 14.2199 38.3681 14.3719 37.8372C14.4443 37.5844 14.511 37.3518 14.5685 37.1884C14.7655 36.6289 14.9891 36.0787 15.2124 35.5292L15.215 35.5228C15.2411 35.4585 15.2673 35.3942 15.2934 35.3299C19.246 35.3415 23.4676 34.1043 26.3271 31.2829C29.5249 28.1271 30.3304 23.0383 30.3367 18.7318C30.3372 18.3922 30.3139 17.9893 30.0655 17.7296C29.9128 17.5699 29.6829 17.5218 29.4695 17.5265C29.3665 17.5287 29.2635 17.5397 29.1609 17.5507ZM19.1663 5.06048C19.3194 5.051 19.473 5.04244 19.6261 5.04351C21.5036 5.05669 23.3835 5.89639 24.7029 7.21957C26.4992 9.02125 26.8667 10.9331 26.8706 13.3786L19.9917 13.3748L12.2512 13.3844C12.192 11.2824 12.5305 9.36251 13.9095 7.70274C15.2343 6.10825 17.1251 5.24283 19.1663 5.06048Z" fill="#030A06"/>
  <path d="M28.539 19.4064L28.4598 19.4018C24.3971 19.9553 19.5299 21.9155 16.987 25.2507C15.2925 27.4731 14.6634 29.7877 14.728 32.5506C16.6451 29.1546 19.2898 26.2247 22.4725 23.971C22.5699 23.903 22.6713 23.8286 22.7755 23.7521C23.1691 23.4631 23.6052 23.1429 24.0379 23.0159C24.3427 22.9265 24.5381 22.991 24.805 23.1458C24.9956 23.3632 25.1575 23.5994 25.1254 23.9038C25.0904 24.2342 24.7578 24.4801 24.5109 24.6614C24.2565 24.8479 23.9975 25.0265 23.7386 25.205C23.3365 25.4823 22.9346 25.7594 22.5508 26.066C20.0686 28.0498 17.6622 30.7209 16.1647 33.5374C19.3797 33.4737 22.9052 32.3242 25.1754 29.9814C27.627 27.4516 28.5517 23.0043 28.5769 19.55C28.5777 19.497 28.575 19.4909 28.5605 19.458C28.557 19.4501 28.5528 19.4404 28.5478 19.4284C28.5452 19.4219 28.5422 19.4146 28.539 19.4064ZM29.1375 17.553L29.161 17.5505C29.2636 17.5396 29.3665 17.5286 29.4695 17.5263C29.6829 17.5216 29.9129 17.5697 30.0655 17.7295C30.3139 17.9892 30.3373 18.3921 30.3368 18.7316C30.3305 23.0381 29.5249 28.1269 26.3271 31.2828C23.4676 34.1041 19.246 35.3414 15.2934 35.3297C15.2673 35.394 15.2412 35.4583 15.2151 35.5226L15.2124 35.5291C14.9891 36.0785 14.7655 36.6288 14.5686 37.1882C14.511 37.3516 14.4444 37.5842 14.372 37.837C14.22 38.3679 14.0422 38.9885 13.8686 39.247C13.707 39.4871 13.4588 39.5426 13.1902 39.5868C13.1031 39.5766 13.0188 39.5615 12.9351 39.5353C12.732 39.4706 12.5446 39.3389 12.4526 39.1425C12.1346 38.4628 13.049 36.1647 13.4423 35.176C13.4783 35.0856 13.51 35.0061 13.5359 34.9398C13.3068 34.2723 13.1478 33.6015 13.0689 32.8996C12.7095 29.7033 13.7975 26.4574 15.7889 23.9619C18.8872 20.079 24.3442 18.1075 29.1375 17.553Z" fill="#030A06"/>
  <path d="M29.161 17.5505L29.1375 17.553C24.3442 18.1075 18.8873 20.079 15.789 23.9619C13.7976 26.4574 12.7096 29.7033 13.069 32.8996C13.1479 33.6015 13.3068 34.2723 13.5359 34.9398C13.51 35.0061 13.4784 35.0856 13.4424 35.176C13.049 36.1647 12.1347 38.4628 12.4527 39.1425C12.5447 39.3389 12.732 39.4706 12.9352 39.5353C13.0189 39.5615 13.1032 39.5766 13.1903 39.5868C13.4588 39.5426 13.7071 39.4871 13.8687 39.247C14.0423 38.9885 14.2199 38.3682 14.3719 37.8374C14.4444 37.5844 14.511 37.3517 14.5686 37.1882C14.7656 36.6287 14.9892 36.0786 15.2125 35.5291C15.2134 35.5269 15.2142 35.5248 15.2151 35.5226C15.2413 35.4583 15.2674 35.394 15.2935 35.3297C19.2461 35.3414 23.4677 34.1041 26.3272 31.2828C29.525 28.1269 30.3305 23.0381 30.3368 18.7316C30.3373 18.3921 30.314 17.9892 30.0656 17.7295C29.9129 17.5697 29.683 17.5216 29.4696 17.5263C29.3666 17.5286 29.2636 17.5396 29.161 17.5505ZM28.4598 19.4018L28.5391 19.4064C28.5423 19.4146 28.5452 19.4219 28.5479 19.4284C28.5529 19.4405 28.5571 19.45 28.5606 19.458C28.5751 19.4909 28.5777 19.497 28.577 19.55C28.5517 23.0043 27.6271 27.4516 25.1755 29.9814C22.9052 32.3242 19.3798 33.4737 16.1647 33.5374C17.6622 30.7209 20.0686 28.0498 22.5508 26.066C22.9347 25.7594 23.3366 25.4823 23.7387 25.205C23.9976 25.0265 24.2566 24.8479 24.5109 24.6614C24.7579 24.4801 25.0904 24.2342 25.1254 23.9038C25.1575 23.5994 24.9956 23.3632 24.8051 23.1458C24.5382 22.991 24.3427 22.9265 24.0379 23.0159C23.6052 23.1429 23.1691 23.4631 22.7756 23.7521C22.6714 23.8286 22.57 23.903 22.4726 23.971C19.2898 26.2247 16.6452 29.1546 14.7281 32.5506C14.6634 29.7877 15.2926 27.4731 16.9871 25.2507C19.53 21.9155 24.3972 19.9553 28.4598 19.4018Z" fill="#030A06"/>
  <path d="M90.8805 29.2565C90.7607 25.8612 87.9116 23.2063 84.5169 23.3256C81.1211 23.4444 78.4651 26.2946 78.585 29.6898C78.7048 33.0856 81.555 35.7411 84.9502 35.6212C88.3455 35.5008 91.0004 32.6512 90.8805 29.2565ZM84.7306 25.1713C85.721 25.2115 86.5237 25.4496 87.2787 26.1183C88.1785 26.9145 88.6801 28.0649 88.7458 29.2565C88.8119 30.4491 88.4366 31.6581 87.6247 32.5465C86.8827 33.3584 85.9574 33.7218 84.8732 33.7761C83.8839 33.7658 83.0677 33.6117 82.2872 32.9625C81.3755 32.2043 80.8602 31.0816 80.7631 29.91C80.6628 28.6919 80.9817 27.4325 81.7904 26.498C82.5926 25.5716 83.5401 25.2527 84.7306 25.1713Z" fill="#030A06"/>
  <path d="M73.7837 28.7471C73.379 25.3708 70.3112 22.9643 66.936 23.3754C63.5697 23.7855 61.171 26.8434 61.5746 30.2104C61.9782 33.5775 65.0317 35.9818 68.3994 35.5848C71.7761 35.1861 74.1884 32.1228 73.7837 28.7471ZM67.1329 25.2211C68.1178 25.1409 69.0101 25.2445 69.8417 25.8167C70.7757 26.4588 71.3629 27.4508 71.5572 28.5589C71.7776 29.8172 71.5703 31.1628 70.8133 32.2112C70.1506 33.1295 69.3225 33.5851 68.2193 33.7608C67.2116 33.8123 66.3213 33.751 65.4726 33.1506C64.5573 32.5057 63.9405 31.5192 63.7618 30.4138C63.5561 29.1946 63.8025 27.7914 64.5304 26.7772C65.17 25.8861 66.063 25.392 67.1329 25.2211Z" fill="#030A06"/>
  <path d="M103.777 23.318C103.746 23.319 103.717 23.3212 103.686 23.325C102.138 23.5078 100.743 24.2573 99.7697 25.4864C98.6589 26.8895 98.2776 28.6685 98.4967 30.4279C98.6762 31.9731 99.467 33.3822 100.692 34.3417C102.144 35.4693 103.984 35.7556 105.777 35.5105C106.815 35.3684 108.374 34.8716 109.037 34.0081C109.224 33.7657 109.318 33.4695 109.275 33.1636C109.244 32.9489 109.15 32.7433 108.973 32.6115C108.77 32.4602 108.499 32.4412 108.257 32.4884C107.922 32.5538 107.621 32.7613 107.336 32.958C107.276 32.9995 107.216 33.0405 107.157 33.0796C105.905 33.7304 104.516 34.0363 103.138 33.5899C102.158 33.2672 101.349 32.5638 100.893 31.6374C100.655 31.1639 100.537 30.6611 100.432 30.1453H106.342C106.588 30.1456 106.852 30.1541 107.123 30.1628C107.824 30.1853 108.574 30.2093 109.193 30.0987C109.369 30.0672 109.537 29.9729 109.665 29.8481C109.956 29.565 110.007 29.1642 109.999 28.7775C109.966 27.2968 109.27 25.8362 108.193 24.8344C106.95 23.6776 105.449 23.2426 103.777 23.318ZM103.959 25.168C104.856 25.0628 105.761 25.2917 106.5 25.8118C107.383 26.4399 107.848 27.3315 108.034 28.381C107.285 28.3901 106.534 28.388 105.784 28.386C105.41 28.3849 105.035 28.3839 104.66 28.3843L100.503 28.3897C100.694 27.7502 100.915 27.1694 101.324 26.6335C101.983 25.7706 102.895 25.3079 103.959 25.168Z" fill="#030A06"/>
  <path d="M70.8598 18.9228C73.0782 18.8702 75.3084 18.919 77.5283 18.9152C78.7926 18.913 80.4078 18.8105 81.6352 18.9369C81.8326 18.9575 81.9899 19.0134 82.1401 19.1446C82.3538 19.3312 82.4959 19.6127 82.5035 19.898C82.51 20.1556 82.3522 20.4512 82.1662 20.6242C82.0241 20.7555 81.8548 20.8081 81.6677 20.8384C81.1568 20.9209 80.5927 20.8726 80.0742 20.8721L77.3201 20.8672L77.319 31.0887C77.3228 31.95 77.4318 33.8288 77.3022 34.5615C77.2615 34.7915 77.178 35.0209 77.0196 35.1972C76.8493 35.3865 76.6145 35.4819 76.3617 35.4874C76.097 35.4933 75.8389 35.4353 75.6479 35.2428C75.4234 35.0177 75.341 34.6863 75.3133 34.3788C75.2623 33.8114 75.309 33.211 75.3155 32.641C75.3252 31.7976 75.3176 30.9537 75.3171 30.1103L75.3236 20.8656C74.4075 20.8699 71.2369 21.0158 70.5877 20.7213C70.3505 20.6139 70.2017 20.4479 70.1156 20.2012C70.0238 19.9386 70.0656 19.6588 70.1982 19.418C70.3535 19.1359 70.5607 19.015 70.8598 18.9228Z" fill="#030A06"/>
  <path d="M56.3485 23.3263C57.1725 23.2796 57.9777 23.3322 58.7778 23.5465C59.6226 23.7726 60.9147 24.2711 61.3515 25.0727C61.4715 25.2934 61.5342 25.5576 61.4495 25.8016C61.3628 26.0506 61.1264 26.241 60.8881 26.3386C60.1933 26.6233 59.3234 25.666 58.6697 25.4198C57.6067 25.019 56.3283 25.0412 55.2942 25.5239C54.3441 25.9676 53.6609 26.8077 53.3072 27.7835C52.8966 28.9159 52.862 30.3928 53.3832 31.4966C53.8665 32.5195 54.7557 33.2343 55.8105 33.6069C57.0175 34.0338 58.275 33.8065 59.4029 33.2658C59.7524 33.0765 60.0698 32.8243 60.4681 32.7418C60.6739 32.6995 60.877 32.7218 61.0525 32.8433C61.2685 32.993 61.4431 33.2891 61.4717 33.5505C61.4987 33.7957 61.4033 34.0213 61.2512 34.2095C60.5913 35.0274 59.1225 35.4385 58.1229 35.5611C56.388 35.7737 54.5809 35.426 53.1925 34.3191C51.8874 33.2989 51.057 31.7889 50.8945 30.1406C50.7226 28.4983 51.2042 26.8544 52.2351 25.5646C53.2801 24.2797 54.7061 23.502 56.3485 23.3263Z" fill="#030A06"/>
  <path d="M93.4029 20.2223C93.4377 20.2206 93.4718 20.219 93.506 20.2179C93.8135 20.2082 94.1227 20.2906 94.3402 20.5173C94.8587 21.0592 94.6526 22.8848 94.6466 23.6322C95.3528 23.6365 97.071 23.4168 97.6004 23.8876C97.7918 24.0585 97.8699 24.2949 97.8705 24.5471C97.8715 24.7918 97.8081 25.0261 97.6264 25.1985C97.1317 25.6671 95.3457 25.4827 94.6455 25.4784C94.652 26.9797 94.4492 31.6072 94.9118 32.7462C95.6597 34.5881 97.2809 32.968 98.2056 33.4035C98.4036 33.4968 98.5658 33.6937 98.639 33.8987C98.7431 34.1905 98.6504 34.4514 98.5305 34.7193C98.5099 34.7421 98.4893 34.7644 98.4687 34.7866C97.9101 35.3686 96.8606 35.5085 96.0899 35.5193C95.1955 35.5323 94.3499 35.3805 93.6893 34.7188C93.212 34.2404 92.9153 33.5841 92.77 32.9311C92.5454 31.9223 92.6382 30.8056 92.6387 29.7767L92.6414 25.48C92.0991 25.4795 91.5562 25.4757 91.0138 25.467C90.9243 25.4111 90.837 25.3537 90.7583 25.2826C90.5441 25.0895 90.4465 24.8015 90.4389 24.5179C90.4324 24.2803 90.505 24.046 90.6824 23.8817C91.1206 23.476 92.0844 23.6213 92.6414 23.6311C92.6398 22.8495 92.4684 21.448 92.7635 20.7603C92.8947 20.4549 93.109 20.3443 93.4029 20.2223Z" fill="#030A06"/>
  <path fill-rule="evenodd" clip-rule="evenodd" d="M50.372 19.9295C49.4375 19.8376 44.8634 19.8702 43.2765 19.8935C42.9847 19.8978 42.7141 19.9177 42.4765 19.9352C42.2743 19.9501 42.0959 19.9632 41.9487 19.9635C41.9487 19.9635 41.3172 20.1117 41.1124 20.3962C40.9785 20.5824 40.9327 20.8188 40.9008 21.0413C40.7313 22.2229 40.6321 23.4285 40.5332 24.6301C40.4811 25.2625 40.4292 25.8938 40.3671 26.5199L39.7653 32.594C39.7493 32.7563 39.7215 32.978 39.69 33.2297C39.5881 34.0432 39.4469 35.1702 39.5382 35.6187C39.5887 35.8673 39.7205 36.0727 39.9403 36.2022C40.1572 36.3301 40.4029 36.4028 40.6499 36.4447L40.6521 36.4447C41.1624 36.4437 41.932 36.4516 42.7918 36.4605C44.5746 36.479 49.1078 36.5015 50.1619 36.4561C50.3721 36.4469 50.5949 36.429 50.793 36.3541C51.0591 36.2533 51.2777 36.0607 51.383 35.7928C51.4889 35.5232 51.4655 35.2211 51.3453 34.9608C51.2245 34.6983 51.0612 34.5583 50.7874 34.4705H41.6759C41.828 33.129 41.9639 31.7859 42.0837 30.4412L42.1913 29.3482L42.2017 29.2399C42.2729 29.2408 42.3666 29.2422 42.478 29.2439C43.406 29.2579 47.9229 29.2904 48.4984 29.2046C48.7096 29.1731 48.9069 29.12 49.0614 28.9643C49.2615 28.7626 49.3446 28.4838 49.328 28.2039C49.314 27.9664 49.2089 27.7076 49.0284 27.5476C48.9078 27.4413 48.7585 27.3725 48.5991 27.3502C48.0612 27.272 44.0455 27.2932 43.0317 27.3062C42.7598 27.3097 42.5338 27.3126 42.3879 27.3128L42.8497 21.8636H47.7667C48.0174 21.8637 48.2786 21.8721 48.5437 21.8806C49.1855 21.9012 49.8505 21.9225 50.4473 21.83C50.6595 21.7974 50.8416 21.7247 50.9955 21.5702C51.1841 21.3809 51.2872 21.0945 51.2728 20.8287C51.258 20.5576 51.112 20.2994 50.8999 20.1329C50.7383 20.006 50.5746 19.949 50.372 19.9295Z" fill="#030A06"/>
</svg>