<svg aria-hidden="true" style="position:absolute;width:0;height:0;overflow:hidden" xmlns="http://www.w3.org/2000/svg">
  <defs>
    <symbol id="logo" viewBox="0 0 107 32">
      <path fill="#ff6b0a" style="fill:var(--color1, #ff6b0a)" d="M106.667 0v32H59.536V0h47.131zM74.42 8.811v13.927l.001.044a.842.842 0 0 1-.001.087c-.007.08.015.128.107.115a.485.485 0 0 1 .066-.001l.033.001h3.582c.075.001.112.001.129-.017s.016-.051.014-.116l-.001-.078V8.83l-.001-.033a.485.485 0 0 1 .001-.066c.008-.082-.02-.125-.109-.115-.018.002-.036.001-.054.001l-.028-.001h-3.55l-.062-.001c-.065-.001-.098-.001-.114.015s-.016.049-.015.116l.001.064zm19.579-.194h-5.863c-1.954 0-3.908 0-5.86-.002h-.133c-.066-.003-.089.028-.084.089a.486.486 0 0 1 0 .054v3.398c0 .072-.001.107.017.124s.051.017.118.016H85.923c.12 0 .18 0 .209.03s.029.087.029.2v10.335c-.001.059-.001.09.014.106.017.018.052.017.127.017h3.571c.111 0 .166 0 .193-.028s.027-.08.027-.186V12.488l-.001-.059c-.001-.063-.001-.097.015-.114.018-.019.055-.018.133-.018h3.798c.162 0 .162 0 .164-.159V8.759c.001-.072.001-.108-.016-.126s-.053-.017-.123-.016L94 8.618z"/>
      <path fill="#010101" style="fill:var(--color2, #010101)" d="m47.132 0 12.403 16-12.403 16H0V0h47.132zm-26.38 13.662.215.174a.371.371 0 0 0 .106-.107.256.256 0 0 1 .02-.026c.254-.302.507-.606.76-.91.507-.606 1.012-1.212 1.518-1.82.101-.122.097-.177-.018-.276a12.617 12.617 0 0 0-.277-.233c-.803-.657-1.685-1.17-2.684-1.467a9.43 9.43 0 0 0-2.043-.353c-.905-.061-1.802-.031-2.691.174-3.112.716-5.434 3.292-5.707 6.594a7.795 7.795 0 0 0 .225 2.638c.519 1.96 1.645 3.461 3.434 4.45.975.539 2.03.823 3.14.912.94.076 1.87.018 2.788-.189 1.553-.35 2.925-1.056 4.146-2.067a.333.333 0 0 0 .137-.289c-.004-1.572-.004-3.145-.003-4.717v-1.179a.66.66 0 0 0-.003-.062c-.003-.046-.006-.092.006-.134.015-.049-.012-.077-.037-.104-.021-.022-.042-.044-.039-.077.007-.054-.03-.062-.073-.062h-6.556l-.038.001c-.026.001-.052.002-.077-.001-.066-.007-.087.026-.083.087a.657.657 0 0 1 .001.077l-.001.038V17.839l-.001.074c-.001.063-.002.096.014.112s.052.017.125.016H19.772c.072-.001.107-.001.124.016.016.016.015.048.014.11l-.001.078v.679c0 .308 0 .311-.279.445-.818.391-1.681.503-2.573.391-.991-.123-1.784-.591-2.365-1.401-.378-.527-.585-1.122-.662-1.763-.097-.818.002-1.605.373-2.348.448-.892 1.125-1.533 2.098-1.827.682-.207 1.373-.153 2.056-.003.619.135 1.159.437 1.657.816.182.138.359.281.539.427zm18.346-2.98c-1.528-1.39-3.348-2.052-5.229-2.066-.869.002-1.518.072-2.207.251-1.998.521-3.563 1.638-4.602 3.422-1.067 1.83-1.283 3.793-.687 5.812.667 2.257 2.089 3.9 4.29 4.815 1.69.701 3.44.795 5.206.332 2.051-.537 3.624-1.725 4.654-3.578.869-1.562 1.102-3.238.778-4.987-.291-1.572-1.017-2.919-2.203-4zm-8.437 3.528c.666-1.227 1.729-1.815 2.762-1.838 2.094-.005 3.464 1.173 3.837 2.806.226.984.125 1.94-.358 2.834-.57 1.05-1.458 1.661-2.654 1.797-1.156.133-2.165-.194-2.99-1.025a3.579 3.579 0 0 1-.983-1.914c-.172-.928-.066-1.827.386-2.66z"/>
    </symbol>
    <symbol id="javascript" viewBox="0 0 32 32">
      <path fill="#f7df1e" style="fill:var(--color3, #f7df1e)" d="M0 0h32v32H0V0z"/>
      <path style="fill:var(--color4, #000)" d="m8.414 26.741 2.449-1.482c.473.838.902 1.546 1.933 1.546.988 0 1.611-.387 1.611-1.89V14.69h3.007v10.267c0 3.115-1.826 4.532-4.489 4.532-2.406 0-3.802-1.246-4.511-2.75zm10.634-.322 2.448-1.418c.645 1.053 1.482 1.826 2.964 1.826 1.246 0 2.041-.623 2.041-1.482 0-1.031-.816-1.396-2.191-1.997l-.752-.323c-2.17-.923-3.609-2.083-3.609-4.532 0-2.256 1.718-3.974 4.404-3.974 1.912 0 3.287.666 4.274 2.406l-2.341 1.504c-.516-.924-1.074-1.289-1.933-1.289-.881 0-1.439.558-1.439 1.289 0 .902.558 1.268 1.847 1.826l.752.322c2.556 1.096 3.995 2.212 3.995 4.726 0 2.707-2.127 4.189-4.983 4.189-2.792 0-4.597-1.332-5.477-3.072z"/>
    </symbol>

    <symbol id="icon-footer_logo" viewBox="0 0 73 32">
<path d="M12.561 2.468c-0.141 0-0.289 0-0.428 0.017-1.617 0.135-3.104 0.822-4.162 2.074-1.152 1.362-1.43 2.798-1.417 4.532l-3.081-0.005c-0.138 0-0.281-0.004-0.425-0.008-0.402-0.011-0.82-0.023-1.196 0.046-0.232 0.044-0.433 0.157-0.584 0.318l-0 0.001c-0.28 0.291-0.287 0.659-0.268 1.036 0.029 0.594 0.079 1.189 0.131 1.783 0.028 0.323 0.055 0.647 0.079 0.969l0.511 6.609 0.249 3.192c0.012 0.157 0.022 0.317 0.032 0.476 0.035 0.571 0.071 1.151 0.222 1.697 0.275 0.962 0.794 1.781 1.486 2.413l0.004 0.004c0.602 0.548 1.34 0.956 2.158 1.168l0.036 0.008c0.691 0.167 1.493 0.148 2.247 0.13 0.224-0.005 0.444-0.011 0.656-0.011l7.772 0.001c0.219 0.001 0.432 0.004 0.644 0.011l-0.036-0.001c0.669 0.016 1.367 0.033 1.992-0.113 0.88-0.205 1.77-0.688 2.412-1.325 0.598-0.593 1.075-1.384 1.284-2.203 0.159-0.626 0.2-1.312 0.239-1.978 0.012-0.215 0.025-0.427 0.041-0.635l0.34-4.377 0.424-5.374c0.021-0.265 0.047-0.534 0.074-0.803 0.058-0.583 0.116-1.17 0.114-1.746-0.001-0.354-0.076-0.685-0.329-0.948-0.175-0.181-0.46-0.27-0.702-0.309-0.362-0.059-0.76-0.049-1.144-0.038-0.142 0.004-0.282 0.008-0.419 0.008-0.165-0-0.36-0.001-0.555-0.001-0.827 0-1.653 0.004-2.478 0.011l0.126-0.001-0.042 0.001c0.023-1.857-0.391-3.451-1.726-4.809-1.078-1.116-2.586-1.811-4.256-1.819h-0.022zM18.434 13.062l0.052 0.003c0.005 0.014 0.009 0.024 0.013 0.033l-0.002-0.004 0.002 0.005c0.009 0.022 0.011 0.026 0.011 0.061-0.017 2.277-0.626 5.209-2.243 6.877-1.496 1.544-3.821 2.302-5.94 2.344 0.987-1.857 2.574-3.618 4.21-4.925 0.253-0.202 0.518-0.385 0.783-0.568 0.171-0.118 0.341-0.236 0.509-0.359 0.163-0.119 0.382-0.281 0.405-0.499 0.021-0.201-0.085-0.356-0.211-0.5-0.176-0.102-0.305-0.145-0.506-0.085-0.285 0.084-0.573 0.295-0.832 0.485-0.069 0.050-0.136 0.1-0.2 0.144-2.094 1.495-3.808 3.384-5.061 5.571l-0.045 0.085c-0.043-1.822 0.372-3.347 1.489-4.813 1.676-2.199 4.885-3.491 7.564-3.856zM2.146 10.227l20.817-0c-0.074 0.701-0.122 1.409-0.17 2.115-0.026 0.393-0.053 0.787-0.084 1.179l-0.561 7.024-0.21 2.588c-0.009 0.112-0.018 0.225-0.026 0.338-0.034 0.447-0.068 0.897-0.154 1.335-0.088 0.449-0.26 0.839-0.493 1.23-0.099 0.149-0.195 0.277-0.297 0.399l0.006-0.007c-0.603 0.721-1.594 1.258-2.535 1.329-0.512 0.039-1.039 0.029-1.562 0.019-0.226-0.004-0.451-0.008-0.674-0.008l-7.756 0c-0.166 0-0.334 0.004-0.504 0.007-0.521 0.011-1.055 0.022-1.556-0.065-0.687-0.123-1.291-0.419-1.782-0.842l0.005 0.004c-0.593-0.502-1.031-1.172-1.241-1.936l-0.006-0.027c-0.141-0.508-0.176-1.049-0.21-1.58-0.009-0.134-0.017-0.267-0.028-0.398l-0.205-2.633-0.775-10.072zM18.896 11.841l-0.015 0.002c-3.16 0.366-6.758 1.665-8.8 4.225-1.313 1.645-2.030 3.785-1.793 5.892 0.059 0.501 0.167 0.956 0.322 1.389l-0.014-0.044-0.062 0.156c-0.259 0.652-0.862 2.167-0.653 2.615 0.061 0.129 0.184 0.216 0.318 0.259 0.055 0.017 0.111 0.027 0.168 0.034 0.177-0.029 0.341-0.066 0.447-0.224 0.115-0.17 0.232-0.579 0.332-0.929 0.048-0.167 0.092-0.32 0.13-0.428 0.13-0.369 0.277-0.732 0.424-1.094l0.002-0.004 0.052-0.127c2.606 0.008 5.389-0.808 7.274-2.668 2.108-2.081 2.639-5.435 2.643-8.274 0-0.224-0.015-0.489-0.179-0.66-0.1-0.105-0.252-0.137-0.393-0.134-0.075 0.003-0.146 0.008-0.215 0.017l0.012-0.001zM12.307 3.607c0.101-0.006 0.202-0.012 0.303-0.011 1.238 0.009 2.477 0.562 3.347 1.435 1.184 1.188 1.427 2.448 1.429 4.060l-9.638 0.004c-0.039-1.386 0.184-2.651 1.093-3.746 0.873-1.051 2.12-1.622 3.465-1.742z"></path>
<path d="M18.487 13.065l-0.052-0.003c-2.678 0.365-5.887 1.657-7.563 3.856-1.117 1.465-1.532 2.991-1.489 4.813 1.298-2.272 3.011-4.161 5.053-5.62l0.053-0.036c0.064-0.045 0.131-0.094 0.2-0.144 0.259-0.191 0.547-0.402 0.832-0.485 0.201-0.059 0.33-0.017 0.506 0.085 0.126 0.143 0.232 0.299 0.211 0.5-0.023 0.218-0.242 0.38-0.405 0.499-0.168 0.123-0.338 0.241-0.509 0.358-0.265 0.183-0.53 0.366-0.783 0.568-1.636 1.308-3.223 3.069-4.21 4.926 2.119-0.042 4.444-0.8 5.94-2.344 1.616-1.668 2.226-4.6 2.242-6.877 0.001-0.035-0.001-0.039-0.011-0.061-0.003-0.006-0.008-0.017-0.012-0.028l-0.002-0.006zM18.881 11.843l0.015-0.001c0.058-0.007 0.128-0.013 0.199-0.016l0.004-0c0.141-0.003 0.292 0.029 0.393 0.134 0.164 0.171 0.179 0.437 0.179 0.661-0.004 2.839-0.535 6.194-2.643 8.274-1.885 1.86-4.668 2.676-7.274 2.668l-0.052 0.127-0.002 0.004c-0.147 0.362-0.295 0.725-0.425 1.094-0.038 0.108-0.082 0.261-0.13 0.428-0.1 0.35-0.217 0.759-0.332 0.93-0.107 0.158-0.27 0.195-0.447 0.224-0.063-0.007-0.12-0.018-0.174-0.036l0.006 0.002c-0.134-0.043-0.258-0.13-0.318-0.259-0.21-0.448 0.393-1.963 0.653-2.615l0.062-0.156c-0.141-0.389-0.249-0.844-0.305-1.315l-0.003-0.030c-0.237-2.107 0.48-4.247 1.793-5.892 2.043-2.56 5.64-3.86 8.8-4.225z"></path>
<path d="M18.897 11.841l-0.015 0.002c-3.16 0.365-6.758 1.665-8.8 4.225-1.313 1.645-2.030 3.785-1.793 5.892 0.059 0.501 0.167 0.956 0.321 1.389l-0.014-0.044-0.062 0.156c-0.259 0.652-0.862 2.167-0.652 2.615 0.060 0.129 0.184 0.216 0.318 0.259 0.055 0.017 0.111 0.027 0.168 0.034 0.177-0.029 0.34-0.066 0.447-0.224 0.114-0.171 0.232-0.579 0.332-0.929 0.048-0.167 0.092-0.32 0.13-0.428 0.13-0.369 0.277-0.732 0.424-1.094l0.002-0.004 0.052-0.127c2.606 0.008 5.389-0.808 7.274-2.668 2.108-2.081 2.639-5.435 2.643-8.274 0-0.224-0.015-0.489-0.179-0.661-0.101-0.105-0.252-0.137-0.393-0.134-0.068 0.001-0.136 0.009-0.204 0.016zM18.434 13.062l0.052 0.003 0.006 0.015 0.008 0.019c0.010 0.022 0.011 0.026 0.011 0.061-0.017 2.277-0.626 5.209-2.242 6.877-1.497 1.545-3.821 2.302-5.94 2.344 0.987-1.857 2.574-3.618 4.21-4.926 0.253-0.202 0.518-0.385 0.783-0.567 0.171-0.118 0.341-0.236 0.509-0.359 0.163-0.12 0.382-0.282 0.405-0.499 0.021-0.201-0.085-0.356-0.211-0.5-0.176-0.102-0.305-0.145-0.506-0.086-0.285 0.084-0.573 0.295-0.832 0.485-0.069 0.051-0.136 0.1-0.2 0.144-2.094 1.495-3.808 3.385-5.061 5.571l-0.045 0.085c-0.043-1.822 0.372-3.347 1.489-4.813 1.677-2.199 4.885-3.491 7.564-3.856zM59.585 19.558c-0.079-2.238-1.957-3.989-4.195-3.91s-3.989 1.957-3.911 4.196c0.079 2.239 1.958 3.989 4.196 3.91s3.989-1.958 3.91-4.196zM55.531 16.865c0.653 0.026 1.182 0.184 1.68 0.624 0.593 0.525 0.924 1.283 0.967 2.069s-0.204 1.583-0.739 2.169c-0.489 0.535-1.099 0.775-1.814 0.811-0.652-0.007-1.19-0.108-1.705-0.536-0.601-0.5-0.941-1.24-1.005-2.012-0.066-0.803 0.144-1.633 0.677-2.249 0.529-0.611 1.153-0.821 1.938-0.875zM48.314 19.222c-0.267-2.226-2.289-3.812-4.514-3.541-2.219 0.27-3.801 2.286-3.535 4.506s2.279 3.805 4.499 3.543c2.226-0.263 3.816-2.282 3.55-4.508zM43.929 16.898c0.649-0.053 1.237 0.015 1.786 0.393 0.616 0.423 1.003 1.077 1.131 1.808 0.145 0.83 0.009 1.717-0.49 2.408-0.437 0.605-0.983 0.906-1.71 1.021-0.664 0.034-1.251-0.006-1.811-0.402-0.59-0.419-1.004-1.055-1.126-1.788l-0.002-0.016c-0.136-0.804 0.027-1.729 0.507-2.397 0.422-0.588 1.011-0.913 1.716-1.026zM68.087 15.643c-0.022 0.001-0.043 0.003-0.063 0.005l0.003-0c-1.021 0.12-1.94 0.615-2.582 1.425-0.732 0.925-0.984 2.098-0.839 3.258 0.126 1.053 0.661 1.961 1.439 2.574l0.008 0.006c0.957 0.743 2.17 0.932 3.352 0.771 0.684-0.094 1.712-0.421 2.149-0.991 0.123-0.16 0.185-0.355 0.157-0.557-0.020-0.142-0.082-0.277-0.199-0.364-0.134-0.1-0.313-0.112-0.472-0.081-0.221 0.043-0.419 0.18-0.607 0.31-0.013 0.010-0.051 0.036-0.090 0.063l-0.028 0.018c-0.825 0.429-1.741 0.631-2.649 0.336-0.654-0.22-1.177-0.68-1.474-1.272l-0.007-0.015c-0.157-0.312-0.235-0.644-0.304-0.984h3.896c0.162 0 0.336 0.006 0.515 0.012 0.462 0.015 0.957 0.031 1.364-0.043 0.123-0.025 0.229-0.083 0.312-0.165l-0 0c0.191-0.186 0.226-0.451 0.22-0.706-0.022-0.976-0.48-1.939-1.19-2.599-0.82-0.763-1.809-1.050-2.911-1zM68.207 16.863c0.085-0.010 0.183-0.016 0.282-0.016 0.522 0 1.005 0.165 1.401 0.446l-0.007-0.005c0.583 0.414 0.889 1.002 1.011 1.694-0.494 0.006-0.988 0.005-1.483 0.003-0.247-0.001-0.494-0.001-0.741-0.001l-2.74 0.004c0.125-0.421 0.271-0.804 0.541-1.158 0.434-0.569 1.036-0.874 1.737-0.966z"></path>
<path d="M46.386 12.746c1.463-0.035 2.933-0.003 4.396-0.005 0.834-0.001 1.898-0.069 2.707 0.014 0.13 0.014 0.234 0.050 0.333 0.137 0.141 0.123 0.235 0.309 0.24 0.497 0.004 0.17-0.1 0.365-0.222 0.479-0.094 0.087-0.205 0.121-0.329 0.141-0.337 0.055-0.709 0.023-1.050 0.022l-1.816-0.003-0.001 6.738c0.003 0.568 0.075 1.806-0.011 2.29-0.027 0.152-0.082 0.303-0.187 0.419-0.112 0.125-0.267 0.188-0.434 0.191-0.174 0.004-0.345-0.034-0.471-0.161-0.148-0.148-0.203-0.367-0.221-0.57-0.034-0.374-0.003-0.77 0.001-1.145 0.007-0.556 0.002-1.112 0.001-1.668l0.004-6.095c-0.604 0.003-2.694 0.099-3.122-0.095-0.157-0.071-0.255-0.18-0.311-0.343-0.061-0.173-0.033-0.358 0.055-0.516 0.102-0.186 0.239-0.266 0.436-0.326zM36.82 15.649c0.543-0.031 1.074 0.004 1.602 0.145 0.557 0.149 1.409 0.478 1.697 1.006 0.079 0.146 0.12 0.32 0.065 0.481-0.057 0.164-0.213 0.29-0.37 0.354-0.458 0.188-1.032-0.443-1.463-0.606-0.701-0.264-1.543-0.249-2.225 0.069-0.626 0.292-1.077 0.846-1.31 1.49-0.271 0.747-0.294 1.72 0.050 2.448 0.319 0.674 0.905 1.145 1.6 1.391 0.796 0.281 1.625 0.132 2.368-0.225 0.231-0.125 0.44-0.291 0.702-0.345 0.136-0.028 0.27-0.013 0.385 0.067 0.142 0.099 0.258 0.294 0.276 0.466 0.018 0.162-0.045 0.31-0.145 0.434-0.435 0.539-1.403 0.811-2.062 0.891-1.144 0.14-2.335-0.089-3.25-0.819-0.837-0.659-1.401-1.631-1.514-2.738l-0.001-0.017c-0.014-0.129-0.023-0.279-0.023-0.431 0-0.982 0.342-1.884 0.913-2.594l-0.006 0.008c0.689-0.847 1.629-1.36 2.712-1.475zM61.248 13.603c0.023-0.001 0.045-0.002 0.068-0.003 0.203-0.007 0.407 0.048 0.55 0.197 0.342 0.357 0.206 1.561 0.202 2.053 0.465 0.003 1.598-0.142 1.947 0.168 0.126 0.113 0.178 0.269 0.178 0.435 0.001 0.161-0.041 0.316-0.161 0.429-0.326 0.309-1.503 0.187-1.965 0.184 0.004 0.99-0.13 4.040 0.175 4.791 0.493 1.214 1.562 0.146 2.172 0.433 0.13 0.062 0.237 0.191 0.286 0.327 0.069 0.192 0.008 0.364-0.072 0.541-0.013 0.015-0.027 0.030-0.041 0.045-0.368 0.383-1.060 0.476-1.568 0.483-0.59 0.009-1.147-0.092-1.582-0.528-0.315-0.315-0.51-0.748-0.606-1.178-0.148-0.665-0.087-1.401-0.087-2.079l0.002-2.833c-0.358-0-0.716-0.003-1.073-0.008-0.064-0.038-0.119-0.078-0.17-0.123l0.001 0.001c-0.141-0.127-0.206-0.317-0.211-0.504-0.004-0.157 0.044-0.311 0.161-0.419 0.289-0.268 0.924-0.172 1.292-0.165-0.001-0.515-0.114-1.439 0.081-1.892 0.086-0.201 0.228-0.274 0.422-0.355z"></path>
<path d="M32.88 13.41c-0.616-0.061-3.632-0.039-4.678-0.024-0.193 0.003-0.371 0.016-0.527 0.027-0.133 0.010-0.251 0.018-0.348 0.019 0 0-0.416 0.098-0.551 0.285-0.088 0.123-0.118 0.279-0.139 0.425-0.112 0.779-0.177 1.574-0.242 2.366-0.034 0.417-0.069 0.833-0.11 1.246l-0.397 4.004c-0.011 0.107-0.029 0.253-0.050 0.419-0.067 0.536-0.16 1.279-0.1 1.575 0.033 0.164 0.12 0.299 0.265 0.385 0.143 0.084 0.305 0.132 0.468 0.16h0.002c0.336-0.001 0.844 0.004 1.41 0.011 1.175 0.012 4.164 0.027 4.859-0.003 0.139-0.006 0.286-0.018 0.416-0.067 0.175-0.066 0.319-0.193 0.389-0.37 0.070-0.178 0.055-0.377-0.025-0.549-0.080-0.173-0.187-0.265-0.368-0.323h-6.007c0.1-0.884 0.19-1.77 0.269-2.656l0.071-0.721 0.007-0.071 0.182 0.003c0.612 0.009 3.59 0.031 3.969-0.026 0.139-0.021 0.269-0.056 0.371-0.158 0.132-0.133 0.187-0.317 0.176-0.502-0.009-0.157-0.079-0.327-0.198-0.433-0.077-0.068-0.173-0.114-0.28-0.13l-0.003-0c-0.355-0.052-3.002-0.038-3.67-0.029-0.179 0.002-0.328 0.004-0.424 0.004l0.305-3.592h3.241c0.166 0 0.338 0.005 0.512 0.011 0.423 0.013 0.862 0.028 1.255-0.034 0.14-0.021 0.26-0.069 0.361-0.171 0.124-0.125 0.192-0.313 0.183-0.489-0.010-0.179-0.106-0.349-0.246-0.459-0.106-0.083-0.214-0.121-0.348-0.134z"></path>
</symbol>
<symbol id="icon-instagram" viewBox="0 0 31 32">
<path d="M15.513 6.319c3.109 0 3.476 0.014 4.699 0.068 1.137 0.050 1.749 0.24 2.159 0.401 0.541 0.209 0.931 0.463 1.336 0.868 0.409 0.409 0.658 0.795 0.873 1.336 0.159 0.41 0.349 1.028 0.399 2.159 0.054 1.228 0.068 1.595 0.068 4.699s-0.014 3.477-0.068 4.7c-0.050 1.137-0.241 1.749-0.401 2.159-0.196 0.524-0.492 0.97-0.867 1.335l-0.001 0.001c-0.409 0.409-0.795 0.659-1.335 0.873-0.41 0.159-1.028 0.349-2.16 0.399-1.228 0.055-1.595 0.068-4.699 0.068s-3.477-0.013-4.7-0.068c-1.136-0.049-1.749-0.241-2.159-0.399-0.524-0.196-0.97-0.492-1.335-0.867l-0.001-0.001c-0.376-0.367-0.673-0.813-0.864-1.311l-0.008-0.025c-0.159-0.409-0.349-1.028-0.399-2.159-0.054-1.228-0.068-1.596-0.068-4.7s0.014-3.476 0.068-4.7c0.050-1.136 0.24-1.749 0.399-2.159 0.209-0.541 0.465-0.931 0.869-1.337 0.367-0.376 0.813-0.673 1.311-0.863l0.025-0.008c0.409-0.159 1.027-0.349 2.159-0.399 1.223-0.054 1.591-0.068 4.7-0.068zM15.513 4.225c-3.159 0-3.554 0.013-4.795 0.068-1.236 0.054-2.087 0.254-2.822 0.541-0.808 0.308-1.497 0.766-2.063 1.344l-0.001 0.001c-0.578 0.566-1.036 1.253-1.332 2.020l-0.013 0.039c-0.287 0.741-0.487 1.585-0.541 2.822-0.054 1.246-0.068 1.641-0.068 4.8s0.014 3.553 0.068 4.794c0.054 1.236 0.254 2.087 0.541 2.822 0.301 0.769 0.695 1.419 1.345 2.064 0.566 0.577 1.253 1.033 2.020 1.328l0.039 0.013c0.741 0.287 1.586 0.487 2.822 0.541 1.241 0.054 1.637 0.068 4.795 0.068s3.555-0.014 4.795-0.068c1.236-0.054 2.087-0.254 2.822-0.541 0.806-0.308 1.493-0.764 2.058-1.34l0.001-0.001c0.577-0.566 1.033-1.253 1.328-2.020l0.013-0.039c0.287-0.741 0.487-1.585 0.541-2.822 0.054-1.241 0.068-1.636 0.068-4.795s-0.014-3.554-0.068-4.795c-0.054-1.236-0.254-2.086-0.541-2.822-0.296-0.812-0.751-1.503-1.33-2.067l-0.001-0.001c-0.566-0.577-1.253-1.033-2.020-1.328l-0.039-0.013c-0.741-0.286-1.585-0.486-2.822-0.541-1.245-0.058-1.641-0.073-4.8-0.073v0.001z"></path>
<path d="M15.512 9.882c-0.001 0-0.001 0-0.002 0-3.302 0-5.978 2.677-5.978 5.978s2.677 5.978 5.978 5.978c3.302 0 5.978-2.677 5.978-5.978 0-0.001 0-0.001 0-0.002v0c-0.001-3.3-2.676-5.975-5.976-5.976h-0zM15.512 19.735c-0.018 0-0.040 0-0.061 0-2.141 0-3.877-1.736-3.877-3.877s1.736-3.877 3.877-3.877c0.022 0 0.043 0 0.065 0.001l-0.003-0c2.115 0.034 3.816 1.757 3.816 3.876s-1.701 3.842-3.812 3.876l-0.003 0zM23.119 9.647c0 0.771-0.625 1.395-1.395 1.395s-1.395-0.625-1.395-1.395v0c0-0.771 0.625-1.395 1.395-1.395s1.395 0.625 1.395 1.395v0z"></path>
</symbol>
<symbol id="icon-linkedin" viewBox="0 0 31 32">
<path d="M24.97 4.223h-18.909c-1.203 0.004-2.178 0.978-2.182 2.181v18.909c0.004 1.203 0.978 2.178 2.181 2.182h18.909c1.203-0.004 2.178-0.978 2.182-2.181v-18.909c-0.004-1.203-0.978-2.178-2.181-2.182h-0zM12.606 23.132h-2.909v-10.182h2.909v10.182zM11.152 11.496c-0.805 0-1.455-0.65-1.455-1.455s0.65-1.455 1.455-1.455 1.455 0.651 1.455 1.455c0 0.805-0.65 1.455-1.455 1.455zM22.788 23.132h-2.909v-5.818c0-0.804-0.65-1.455-1.455-1.455s-1.455 0.651-1.455 1.455v5.818h-2.909v-10.182h2.909v1.805c0.6-0.822 1.518-1.804 2.545-1.804 1.809 0 3.273 1.627 3.273 3.636v6.545z"></path>
</symbol>
<symbol id="icon-youtube" viewBox="0 0 31 32">
<path d="M27.919 9.658c-0.307-1.114-1.166-1.974-2.256-2.278l-0.023-0.005c-2.024-0.556-10.124-0.565-10.124-0.565s-8.1-0.009-10.126 0.524c-1.111 0.323-1.967 1.184-2.278 2.275l-0.006 0.023c-0.533 2.025-0.539 6.223-0.539 6.223s-0.005 4.22 0.526 6.225c0.308 1.113 1.166 1.972 2.256 2.275l0.023 0.005c2.046 0.557 10.124 0.565 10.124 0.565s8.101 0.010 10.126-0.521c1.113-0.309 1.973-1.167 2.279-2.256l0.006-0.023c0.535-2.025 0.539-6.223 0.539-6.223s0.025-4.221-0.527-6.246zM12.924 19.745l0.007-7.758 6.733 3.886-6.739 3.873z"></path>
</symbol>
  </defs>
</svg>
