<svg aria-hidden="true" style="position: absolute; width: 0; height: 0; overflow: hidden;" version="1.1" xmlns="http://www.w3.org/2000/svg" xmlns:xlink="http://www.w3.org/1999/xlink">
  <defs>
    <symbol id="icon-clos" viewBox="0 0 32 32">
      <path d="M27.179 0.918l-11.315 11.312-11.312-11.312-3.771 3.771 11.312 11.312-11.312 11.312 3.771 3.771 11.312-11.312 11.315 11.312 3.771-3.771-11.312-11.312 11.312-11.312-3.771-3.771z"></path>
    </symbol>
    <symbol id="icon-instagram" viewBox="0 0 31 32">
      <path d="M15.607 6.666c3.128 0 3.498 0.014 4.728 0.069 1.143 0.050 1.76 0.242 2.172 0.402 0.544 0.211 0.937 0.467 1.344 0.874 0.412 0.412 0.663 0.8 0.878 1.345 0.16 0.412 0.352 1.033 0.402 2.172 0.055 1.235 0.069 1.605 0.069 4.728s-0.014 3.498-0.069 4.728c-0.050 1.143-0.242 1.76-0.402 2.172-0.211 0.544-0.466 0.937-0.874 1.344-0.412 0.412-0.8 0.663-1.344 0.878-0.412 0.16-1.034 0.352-2.172 0.402-1.235 0.055-1.605 0.069-4.728 0.069s-3.498-0.014-4.728-0.069c-1.143-0.050-1.76-0.242-2.172-0.402-0.544-0.211-0.937-0.466-1.345-0.874-0.412-0.412-0.663-0.8-0.878-1.344-0.16-0.412-0.352-1.034-0.402-2.172-0.055-1.235-0.069-1.605-0.069-4.728s0.014-3.498 0.069-4.728c0.050-1.143 0.242-1.76 0.402-2.172 0.211-0.544 0.467-0.937 0.874-1.345 0.412-0.412 0.8-0.663 1.345-0.878 0.412-0.16 1.033-0.352 2.172-0.402 1.23-0.055 1.601-0.069 4.728-0.069h0.001zM15.607 4.559c-3.178 0-3.575 0.014-4.824 0.069-1.244 0.055-2.099 0.256-2.839 0.544-0.773 0.301-1.427 0.699-2.076 1.353-0.654 0.65-1.052 1.303-1.353 2.071-0.288 0.745-0.489 1.596-0.544 2.839-0.055 1.253-0.069 1.65-0.069 4.829s0.014 3.575 0.069 4.824c0.055 1.244 0.256 2.099 0.544 2.839 0.302 0.773 0.699 1.427 1.353 2.076 0.649 0.649 1.303 1.052 2.071 1.349 0.746 0.288 1.596 0.489 2.839 0.544 1.248 0.055 1.646 0.069 4.824 0.069s3.576-0.014 4.824-0.069c1.244-0.055 2.099-0.256 2.839-0.544 0.768-0.297 1.422-0.699 2.071-1.349s1.052-1.303 1.349-2.071c0.288-0.746 0.489-1.596 0.544-2.839 0.055-1.248 0.069-1.646 0.069-4.824s-0.014-3.575-0.069-4.824c-0.055-1.244-0.256-2.099-0.544-2.839-0.288-0.778-0.686-1.431-1.34-2.081-0.649-0.649-1.303-1.052-2.071-1.349-0.746-0.288-1.596-0.489-2.839-0.544-1.253-0.059-1.651-0.073-4.829-0.073l-0.001 0.001z"></path>
      <path d="M15.607 10.252c-3.319 0-6.013 2.693-6.013 6.013s2.693 6.013 6.013 6.013 6.013-2.693 6.013-6.013c0-3.319-2.693-6.013-6.013-6.013zM15.607 20.165c-2.154 0-3.9-1.746-3.9-3.9s1.746-3.9 3.9-3.9c2.154 0 3.9 1.746 3.9 3.9s-1.746 3.9-3.9 3.9z"></path>
      <path d="M23.261 10.014c0 0.775-0.628 1.404-1.404 1.404s-1.404-0.628-1.404-1.404c0-0.775 0.628-1.404 1.404-1.404s1.404 0.629 1.404 1.404z"></path>
    </symbol>
    <symbol id="icon-linkedIn" viewBox="0 0 31 32">
      <path d="M25.122 4.558h-19.024c-1.207 0-2.195 0.988-2.195 2.195v19.024c0 1.207 0.988 2.195 2.195 2.195h19.024c1.207 0 2.195-0.988 2.195-2.195v-19.024c0-1.207-0.988-2.195-2.195-2.195zM12.683 23.582h-2.927v-10.244h2.927v10.244zM11.22 11.875c-0.809 0-1.463-0.654-1.463-1.463s0.654-1.463 1.463-1.463 1.463 0.654 1.463 1.463c0 0.809-0.654 1.463-1.463 1.463zM22.927 23.582h-2.927v-5.854c0-0.809-0.654-1.463-1.463-1.463s-1.463 0.654-1.463 1.463v5.854h-2.927v-10.244h2.927v1.815c0.604-0.828 1.527-1.815 2.561-1.815 1.82 0 3.293 1.638 3.293 3.659v6.585z"></path>
    </symbol>
    <symbol id="icon-logo" viewBox="0 0 75 32">
      <path d="M13.034 2.222c-0.142 0-0.292 0-0.433 0.017-1.636 0.136-3.139 0.831-4.209 2.097-1.165 1.378-1.447 2.829-1.433 4.583l-3.116-0.005c-0.14-0-0.284-0.004-0.43-0.008-0.407-0.011-0.829-0.023-1.21 0.047-0.23 0.042-0.43 0.154-0.592 0.322-0.283 0.294-0.29 0.666-0.271 1.047 0.029 0.601 0.081 1.202 0.132 1.803 0.028 0.327 0.056 0.654 0.080 0.98l0.517 6.683 0.252 3.227c0.012 0.159 0.022 0.32 0.032 0.482 0.036 0.578 0.072 1.164 0.224 1.716 0.263 0.94 0.785 1.786 1.507 2.444 0.63 0.572 1.392 0.981 2.218 1.188 0.699 0.169 1.51 0.149 2.272 0.132 0.227-0.005 0.449-0.011 0.663-0.011l7.859 0c0.2 0 0.406 0.005 0.615 0.010 0.677 0.016 1.382 0.033 2.015-0.115 0.89-0.207 1.79-0.695 2.439-1.339 0.604-0.6 1.087-1.4 1.298-2.227 0.161-0.633 0.202-1.327 0.241-2 0.013-0.217 0.025-0.432 0.042-0.642l0.344-4.426 0.429-5.435c0.021-0.268 0.048-0.54 0.075-0.812 0.058-0.589 0.117-1.183 0.116-1.765-0.001-0.358-0.076-0.692-0.333-0.958-0.177-0.183-0.465-0.273-0.71-0.313-0.366-0.060-0.768-0.049-1.156-0.039-0.144 0.004-0.286 0.008-0.423 0.008-0.98-0.002-1.96 0.002-2.94 0.010l-0.042 0.001c0.023-1.878-0.395-3.49-1.745-4.863-1.128-1.169-2.681-1.832-4.305-1.839l-0.021 0zM18.973 12.935l0.053 0.003c0.001 0.004 0.003 0.007 0.004 0.010 0.001 0.002 0.001 0.003 0.002 0.005 0.002 0.006 0.004 0.011 0.006 0.015l0.002 0.005c0.010 0.022 0.011 0.026 0.011 0.061-0.017 2.303-0.633 5.268-2.268 6.954-1.514 1.562-3.864 2.328-6.007 2.371 0.998-1.878 2.603-3.659 4.257-4.981 0.256-0.204 0.524-0.389 0.792-0.574 0.173-0.119 0.345-0.238 0.515-0.363 0.165-0.121 0.386-0.285 0.41-0.505 0.021-0.203-0.087-0.36-0.214-0.505-0.178-0.103-0.308-0.146-0.511-0.087-0.289 0.085-0.579 0.298-0.842 0.491-0.069 0.051-0.137 0.101-0.202 0.146-2.122 1.503-3.885 3.456-5.163 5.72-0.043-1.842 0.376-3.385 1.506-4.867 1.695-2.223 4.94-3.53 7.649-3.899zM2.502 10.068l21.051-0c-0.075 0.709-0.123 1.424-0.171 2.139-0.027 0.398-0.054 0.796-0.085 1.192l-0.567 7.103-0.212 2.617c-0.009 0.114-0.018 0.228-0.027 0.342-0.034 0.452-0.068 0.907-0.155 1.349-0.090 0.454-0.263 0.848-0.498 1.244-0.091 0.138-0.189 0.27-0.295 0.397-0.61 0.729-1.612 1.272-2.564 1.344-0.518 0.039-1.051 0.029-1.579 0.020-0.229-0.004-0.456-0.008-0.681-0.009l-7.843 0c-0.168 0-0.338 0.004-0.51 0.007-0.527 0.011-1.067 0.022-1.573-0.065-0.664-0.116-1.285-0.409-1.797-0.848-0.613-0.517-1.054-1.21-1.261-1.985-0.142-0.514-0.178-1.061-0.212-1.598-0.009-0.135-0.017-0.269-0.028-0.402l-0.207-2.663-0.784-10.185zM19.441 11.7l-0.016 0.002c-3.196 0.37-6.834 1.684-8.899 4.273-1.328 1.664-2.053 3.828-1.813 5.959 0.053 0.468 0.159 0.915 0.311 1.36-0.017 0.044-0.038 0.097-0.062 0.157-0.262 0.659-0.872 2.191-0.66 2.644 0.061 0.131 0.186 0.219 0.322 0.262 0.056 0.017 0.112 0.028 0.17 0.034 0.179-0.029 0.345-0.067 0.452-0.227 0.116-0.172 0.234-0.586 0.336-0.94 0.048-0.169 0.093-0.324 0.131-0.433 0.131-0.373 0.28-0.74 0.429-1.106l0.002-0.004c0.017-0.043 0.035-0.086 0.052-0.129 2.635 0.008 5.449-0.817 7.356-2.698 2.132-2.104 2.669-5.496 2.673-8.367 0-0.226-0.015-0.495-0.181-0.668-0.102-0.107-0.255-0.139-0.397-0.135-0.069 0.002-0.137 0.009-0.206 0.016zM12.777 3.374c0.102-0.006 0.205-0.012 0.307-0.011 1.252 0.009 2.505 0.569 3.385 1.451 1.198 1.201 1.442 2.476 1.445 4.106l-9.746 0.004c-0.039-1.401 0.186-2.681 1.106-3.788 0.883-1.063 2.144-1.64 3.504-1.761z"></path>
      <path d="M19.026 12.938l-0.053-0.003c-2.708 0.369-5.953 1.676-7.648 3.899-1.13 1.482-1.549 3.025-1.506 4.867 1.278-2.264 3.041-4.217 5.163-5.72 0.065-0.045 0.133-0.095 0.202-0.146 0.262-0.193 0.553-0.406 0.842-0.491 0.203-0.060 0.334-0.017 0.511 0.087 0.127 0.145 0.235 0.302 0.213 0.505-0.023 0.22-0.245 0.384-0.41 0.505-0.17 0.124-0.342 0.243-0.515 0.363-0.268 0.185-0.536 0.369-0.792 0.574-1.655 1.323-3.259 3.103-4.257 4.981 2.143-0.043 4.494-0.809 6.007-2.371 1.634-1.687 2.251-4.651 2.268-6.954 0-0.035-0.001-0.039-0.011-0.061-0.002-0.005-0.005-0.012-0.008-0.020-0.002-0.004-0.004-0.009-0.006-0.015zM19.425 11.702l0.016-0.002c0.068-0.007 0.137-0.015 0.206-0.016 0.142-0.003 0.296 0.029 0.397 0.135 0.166 0.173 0.181 0.442 0.181 0.668-0.004 2.871-0.541 6.264-2.673 8.367-1.906 1.881-4.721 2.706-7.356 2.698-0.017 0.043-0.035 0.086-0.052 0.129l-0.002 0.004c-0.149 0.366-0.298 0.733-0.429 1.106-0.038 0.109-0.083 0.264-0.131 0.433-0.101 0.354-0.22 0.768-0.336 0.94-0.108 0.16-0.273 0.197-0.452 0.227-0.058-0.007-0.114-0.017-0.17-0.034-0.135-0.043-0.26-0.131-0.322-0.262-0.212-0.453 0.398-1.985 0.66-2.644 0.024-0.060 0.045-0.113 0.062-0.157-0.153-0.445-0.259-0.892-0.311-1.36-0.24-2.131 0.486-4.295 1.813-5.959 2.066-2.589 5.703-3.903 8.899-4.273z"></path>
      <path d="M19.441 11.7l-0.016 0.002c-3.196 0.37-6.834 1.684-8.899 4.273-1.328 1.664-2.053 3.828-1.813 5.959 0.053 0.468 0.159 0.915 0.311 1.36-0.017 0.044-0.038 0.097-0.062 0.157-0.262 0.659-0.872 2.191-0.66 2.644 0.061 0.131 0.186 0.219 0.322 0.262 0.056 0.017 0.112 0.028 0.17 0.034 0.179-0.029 0.345-0.067 0.452-0.227 0.116-0.172 0.234-0.586 0.336-0.94 0.048-0.169 0.093-0.324 0.131-0.433 0.131-0.373 0.28-0.74 0.429-1.106 0.001-0.001 0.001-0.003 0.002-0.004 0.017-0.043 0.035-0.086 0.052-0.129 2.635 0.008 5.45-0.817 7.356-2.698 2.132-2.104 2.669-5.496 2.673-8.367 0-0.226-0.015-0.495-0.181-0.668-0.102-0.107-0.255-0.139-0.397-0.135-0.069 0.002-0.137 0.009-0.206 0.016zM18.973 12.935l0.053 0.003c0.002 0.005 0.004 0.010 0.006 0.015 0.003 0.008 0.006 0.014 0.008 0.020 0.010 0.022 0.011 0.026 0.011 0.061-0.017 2.303-0.633 5.268-2.268 6.954-1.514 1.562-3.864 2.328-6.007 2.371 0.998-1.878 2.603-3.659 4.257-4.981 0.256-0.204 0.524-0.389 0.792-0.574 0.173-0.119 0.345-0.238 0.515-0.363 0.165-0.121 0.386-0.285 0.41-0.505 0.021-0.203-0.087-0.36-0.214-0.505-0.178-0.103-0.308-0.146-0.511-0.087-0.288 0.085-0.579 0.298-0.841 0.491-0.069 0.051-0.137 0.101-0.202 0.146-2.122 1.503-3.885 3.456-5.163 5.72-0.043-1.842 0.376-3.385 1.506-4.867 1.695-2.223 4.94-3.53 7.649-3.899z"></path>
      <path d="M60.587 19.504c-0.080-2.264-1.979-4.034-4.242-3.954s-4.035 1.979-3.955 4.243c0.080 2.264 1.98 4.034 4.243 3.954s4.033-1.98 3.954-4.243zM56.487 16.781c0.66 0.027 1.195 0.186 1.699 0.631 0.6 0.531 0.934 1.298 0.978 2.092s-0.206 1.601-0.747 2.193c-0.495 0.541-1.112 0.784-1.834 0.82-0.66-0.007-1.204-0.11-1.724-0.542-0.608-0.506-0.951-1.254-1.016-2.035-0.067-0.812 0.146-1.652 0.685-2.275 0.535-0.618 1.166-0.83 1.96-0.884z"></path>
      <path d="M49.189 19.165c-0.27-2.251-2.315-3.855-4.565-3.581-2.244 0.273-3.843 2.312-3.574 4.557s2.305 3.848 4.55 3.583c2.251-0.266 3.859-2.308 3.59-4.558zM44.755 16.814c0.657-0.053 1.251 0.016 1.806 0.397 0.623 0.428 1.014 1.090 1.144 1.828 0.147 0.839 0.009 1.736-0.496 2.435-0.442 0.612-0.994 0.916-1.729 1.033-0.672 0.034-1.265-0.006-1.831-0.407-0.61-0.43-1.021-1.088-1.141-1.825-0.137-0.813 0.027-1.748 0.512-2.424 0.426-0.594 1.022-0.923 1.735-1.037z"></path>
      <path d="M69.184 15.545c-0.020 0.001-0.040 0.002-0.060 0.005-1.032 0.122-1.962 0.621-2.611 1.441-0.74 0.935-0.995 2.121-0.849 3.294 0.12 1.030 0.647 1.97 1.464 2.609 0.968 0.752 2.194 0.943 3.39 0.779 0.692-0.095 1.731-0.426 2.174-1.002 0.124-0.162 0.187-0.359 0.158-0.563-0.020-0.143-0.083-0.28-0.201-0.368-0.136-0.101-0.316-0.114-0.477-0.082-0.224 0.044-0.424 0.182-0.614 0.313-0.040 0.028-0.080 0.055-0.119 0.081-0.835 0.434-1.761 0.638-2.679 0.34-0.653-0.215-1.193-0.684-1.497-1.302-0.158-0.316-0.237-0.651-0.307-0.995h3.94c0.164 0 0.34 0.006 0.521 0.012 0.467 0.015 0.967 0.031 1.38-0.043 0.118-0.021 0.23-0.084 0.315-0.167 0.194-0.189 0.228-0.456 0.222-0.714-0.022-0.987-0.486-1.961-1.204-2.629-0.829-0.771-1.829-1.061-2.944-1.011zM69.306 16.779c0.598-0.070 1.201 0.082 1.694 0.429 0.589 0.419 0.898 1.013 1.022 1.713-0.499 0.006-1 0.005-1.5 0.003-0.25-0.001-0.5-0.001-0.749-0.001l-2.771 0.004c0.127-0.426 0.274-0.814 0.547-1.171 0.439-0.575 1.047-0.884 1.757-0.977z"></path>
      <path d="M47.24 12.615c1.479-0.035 2.966-0.003 4.446-0.005 0.843-0.002 1.92-0.070 2.738 0.014 0.132 0.014 0.236 0.051 0.337 0.139 0.142 0.124 0.237 0.312 0.242 0.502 0.004 0.172-0.101 0.369-0.225 0.484-0.095 0.088-0.208 0.123-0.332 0.143-0.341 0.055-0.717 0.023-1.062 0.022l-1.836-0.003-0.001 6.814c0.003 0.574 0.075 1.827-0.011 2.315-0.027 0.153-0.083 0.306-0.188 0.424-0.114 0.126-0.27 0.19-0.439 0.193-0.176 0.004-0.349-0.035-0.476-0.163-0.15-0.15-0.205-0.371-0.223-0.576-0.034-0.378-0.003-0.779 0.001-1.159 0.007-0.562 0.001-1.125 0.001-1.687l0.004-6.163c-0.611 0.003-2.724 0.1-3.157-0.096-0.158-0.072-0.257-0.182-0.315-0.347-0.061-0.175-0.033-0.361 0.055-0.522 0.103-0.188 0.242-0.269 0.441-0.33z"></path>
      <path d="M37.566 15.551c0.549-0.031 1.086 0.004 1.619 0.147 0.563 0.151 1.425 0.483 1.716 1.018 0.080 0.147 0.122 0.323 0.065 0.486-0.058 0.166-0.215 0.293-0.374 0.358-0.463 0.19-1.043-0.448-1.479-0.613-0.709-0.267-1.561-0.252-2.25 0.069-0.633 0.296-1.089 0.856-1.325 1.506-0.274 0.755-0.297 1.74 0.051 2.475 0.322 0.682 0.915 1.159 1.618 1.407 0.805 0.285 1.643 0.133 2.395-0.227 0.233-0.126 0.445-0.294 0.71-0.349 0.137-0.028 0.273-0.013 0.39 0.068 0.144 0.1 0.26 0.297 0.279 0.471 0.018 0.163-0.046 0.314-0.147 0.439-0.44 0.545-1.419 0.819-2.086 0.901-1.157 0.142-2.361-0.090-3.287-0.828-0.87-0.68-1.424-1.687-1.532-2.786-0.115-1.095 0.206-2.191 0.894-3.051 0.697-0.857 1.647-1.375 2.742-1.492z"></path>
      <path d="M62.269 13.482c0.023-0.001 0.046-0.002 0.069-0.003 0.205-0.007 0.411 0.048 0.556 0.2 0.346 0.361 0.208 1.578 0.204 2.077 0.471 0.003 1.616-0.144 1.969 0.17 0.128 0.114 0.18 0.272 0.18 0.44 0.001 0.163-0.042 0.319-0.163 0.434-0.33 0.312-1.52 0.189-1.987 0.187 0.004 1.001-0.131 4.086 0.178 4.845 0.499 1.228 1.579 0.148 2.196 0.438 0.132 0.062 0.24 0.194 0.289 0.33 0.069 0.195 0.008 0.368-0.072 0.547-0.014 0.015-0.027 0.030-0.041 0.045-0.372 0.388-1.072 0.481-1.586 0.489-0.596 0.009-1.16-0.093-1.6-0.534-0.318-0.319-0.516-0.756-0.613-1.192-0.15-0.673-0.088-1.417-0.087-2.103l0.002-2.864c-0.362-0-0.724-0.003-1.085-0.009-0.060-0.037-0.118-0.076-0.17-0.123-0.143-0.129-0.208-0.321-0.213-0.51-0.004-0.158 0.044-0.315 0.162-0.424 0.292-0.271 0.935-0.174 1.306-0.167-0.001-0.521-0.115-1.455 0.081-1.914 0.088-0.204 0.23-0.277 0.426-0.359z"></path>
      <path d="M33.582 13.286c-0.623-0.061-3.672-0.039-4.73-0.024-0.195 0.003-0.375 0.016-0.533 0.028-0.135 0.010-0.254 0.019-0.352 0.019 0 0-0.421 0.099-0.558 0.288-0.089 0.124-0.12 0.282-0.141 0.43-0.113 0.788-0.179 1.591-0.245 2.393-0.035 0.422-0.069 0.843-0.111 1.26l-0.401 4.049c-0.011 0.108-0.029 0.256-0.050 0.424-0.068 0.542-0.162 1.294-0.101 1.593 0.034 0.166 0.122 0.303 0.268 0.389 0.145 0.085 0.308 0.134 0.473 0.162h0.002c0.34-0.001 0.853 0.005 1.427 0.011 1.189 0.012 4.211 0.027 4.913-0.003 0.14-0.006 0.289-0.018 0.421-0.068 0.177-0.067 0.323-0.196 0.393-0.374 0.071-0.18 0.055-0.381-0.025-0.555-0.081-0.175-0.189-0.268-0.372-0.327h-6.074c0.101-0.894 0.192-1.79 0.272-2.686l0.072-0.729 0.007-0.072c0.047 0.001 0.11 0.002 0.184 0.003 0.619 0.009 3.63 0.031 4.014-0.026 0.141-0.021 0.272-0.056 0.375-0.16 0.133-0.135 0.189-0.32 0.178-0.507-0.009-0.158-0.079-0.331-0.2-0.438-0.080-0.071-0.18-0.117-0.286-0.132-0.359-0.052-3.036-0.038-3.712-0.029-0.181 0.002-0.332 0.004-0.429 0.004l0.308-3.633h3.278c0.167 0 0.341 0.006 0.518 0.011 0.428 0.014 0.871 0.028 1.269-0.034 0.142-0.022 0.263-0.070 0.365-0.173 0.126-0.126 0.194-0.317 0.185-0.494-0.010-0.181-0.107-0.353-0.249-0.464-0.108-0.085-0.217-0.123-0.352-0.136z"></path>
    </symbol>
    <symbol id="icon-menu" viewBox="0 0 32 32">
      <path d="M5.333 8h21.333v2.667h-21.333v-2.667zM5.333 14.667h21.333v2.667h-21.333v-2.667zM5.333 21.333h21.333v2.667h-21.333v-2.667z"></path>
    </symbol>
    <symbol id="icon-star" viewBox="0 0 32 32">
      <path d="M14.513 2.5c0.55-1.306 2.423-1.306 2.973 0l3.246 7.71c0.232 0.551 0.756 0.927 1.358 0.975l8.426 0.667c1.428 0.113 2.006 1.873 0.919 2.793l-6.419 5.432c-0.458 0.388-0.659 0.997-0.519 1.577l1.961 8.123c0.332 1.376-1.183 2.464-2.405 1.727l-7.214-4.353c-0.515-0.311-1.163-0.311-1.678 0l-7.214 4.353c-1.222 0.737-2.738-0.35-2.405-1.727l1.961-8.123c0.14-0.58-0.060-1.189-0.519-1.577l-6.42-5.432c-1.088-0.92-0.509-2.68 0.919-2.793l8.426-0.667c0.602-0.048 1.126-0.424 1.358-0.975l3.246-7.71z"></path>
    </symbol>
    <symbol id="icon-youtube" viewBox="0 0 31 32">
      <path d="M28.089 10.025c-0.148-0.55-0.438-1.051-0.84-1.454s-0.903-0.694-1.452-0.843c-2.037-0.559-10.187-0.568-10.187-0.568s-8.148-0.009-10.187 0.526c-0.549 0.156-1.049 0.451-1.451 0.856s-0.694 0.907-0.846 1.457c-0.537 2.037-0.542 6.262-0.542 6.262s-0.005 4.246 0.528 6.262c0.299 1.115 1.177 1.995 2.293 2.296 2.058 0.559 10.185 0.568 10.185 0.568s8.15 0.009 10.187-0.524c0.55-0.149 1.051-0.439 1.454-0.841s0.694-0.903 0.845-1.452c0.539-2.036 0.542-6.259 0.542-6.259s0.026-4.247-0.529-6.284zM13.003 20.174l0.006-7.805 6.773 3.909-6.78 3.896z"></path>
    </symbol>

    <symbol id="icon-footer_logo" viewBox="0 0 73 32">
<path d="M12.561 2.468c-0.141 0-0.289 0-0.428 0.017-1.617 0.135-3.104 0.822-4.162 2.074-1.152 1.362-1.43 2.798-1.417 4.532l-3.081-0.005c-0.138 0-0.281-0.004-0.425-0.008-0.402-0.011-0.82-0.023-1.196 0.046-0.232 0.044-0.433 0.157-0.584 0.318l-0 0.001c-0.28 0.291-0.287 0.659-0.268 1.036 0.029 0.594 0.079 1.189 0.131 1.783 0.028 0.323 0.055 0.647 0.079 0.969l0.511 6.609 0.249 3.192c0.012 0.157 0.022 0.317 0.032 0.476 0.035 0.571 0.071 1.151 0.222 1.697 0.275 0.962 0.794 1.781 1.486 2.413l0.004 0.004c0.602 0.548 1.34 0.956 2.158 1.168l0.036 0.008c0.691 0.167 1.493 0.148 2.247 0.13 0.224-0.005 0.444-0.011 0.656-0.011l7.772 0.001c0.219 0.001 0.432 0.004 0.644 0.011l-0.036-0.001c0.669 0.016 1.367 0.033 1.992-0.113 0.88-0.205 1.77-0.688 2.412-1.325 0.598-0.593 1.075-1.384 1.284-2.203 0.159-0.626 0.2-1.312 0.239-1.978 0.012-0.215 0.025-0.427 0.041-0.635l0.34-4.377 0.424-5.374c0.021-0.265 0.047-0.534 0.074-0.803 0.058-0.583 0.116-1.17 0.114-1.746-0.001-0.354-0.076-0.685-0.329-0.948-0.175-0.181-0.46-0.27-0.702-0.309-0.362-0.059-0.76-0.049-1.144-0.038-0.142 0.004-0.282 0.008-0.419 0.008-0.165-0-0.36-0.001-0.555-0.001-0.827 0-1.653 0.004-2.478 0.011l0.126-0.001-0.042 0.001c0.023-1.857-0.391-3.451-1.726-4.809-1.078-1.116-2.586-1.811-4.256-1.819h-0.022zM18.434 13.062l0.052 0.003c0.005 0.014 0.009 0.024 0.013 0.033l-0.002-0.004 0.002 0.005c0.009 0.022 0.011 0.026 0.011 0.061-0.017 2.277-0.626 5.209-2.243 6.877-1.496 1.544-3.821 2.302-5.94 2.344 0.987-1.857 2.574-3.618 4.21-4.925 0.253-0.202 0.518-0.385 0.783-0.568 0.171-0.118 0.341-0.236 0.509-0.359 0.163-0.119 0.382-0.281 0.405-0.499 0.021-0.201-0.085-0.356-0.211-0.5-0.176-0.102-0.305-0.145-0.506-0.085-0.285 0.084-0.573 0.295-0.832 0.485-0.069 0.050-0.136 0.1-0.2 0.144-2.094 1.495-3.808 3.384-5.061 5.571l-0.045 0.085c-0.043-1.822 0.372-3.347 1.489-4.813 1.676-2.199 4.885-3.491 7.564-3.856zM2.146 10.227l20.817-0c-0.074 0.701-0.122 1.409-0.17 2.115-0.026 0.393-0.053 0.787-0.084 1.179l-0.561 7.024-0.21 2.588c-0.009 0.112-0.018 0.225-0.026 0.338-0.034 0.447-0.068 0.897-0.154 1.335-0.088 0.449-0.26 0.839-0.493 1.23-0.099 0.149-0.195 0.277-0.297 0.399l0.006-0.007c-0.603 0.721-1.594 1.258-2.535 1.329-0.512 0.039-1.039 0.029-1.562 0.019-0.226-0.004-0.451-0.008-0.674-0.008l-7.756 0c-0.166 0-0.334 0.004-0.504 0.007-0.521 0.011-1.055 0.022-1.556-0.065-0.687-0.123-1.291-0.419-1.782-0.842l0.005 0.004c-0.593-0.502-1.031-1.172-1.241-1.936l-0.006-0.027c-0.141-0.508-0.176-1.049-0.21-1.58-0.009-0.134-0.017-0.267-0.028-0.398l-0.205-2.633-0.775-10.072zM18.896 11.841l-0.015 0.002c-3.16 0.366-6.758 1.665-8.8 4.225-1.313 1.645-2.030 3.785-1.793 5.892 0.059 0.501 0.167 0.956 0.322 1.389l-0.014-0.044-0.062 0.156c-0.259 0.652-0.862 2.167-0.653 2.615 0.061 0.129 0.184 0.216 0.318 0.259 0.055 0.017 0.111 0.027 0.168 0.034 0.177-0.029 0.341-0.066 0.447-0.224 0.115-0.17 0.232-0.579 0.332-0.929 0.048-0.167 0.092-0.32 0.13-0.428 0.13-0.369 0.277-0.732 0.424-1.094l0.002-0.004 0.052-0.127c2.606 0.008 5.389-0.808 7.274-2.668 2.108-2.081 2.639-5.435 2.643-8.274 0-0.224-0.015-0.489-0.179-0.66-0.1-0.105-0.252-0.137-0.393-0.134-0.075 0.003-0.146 0.008-0.215 0.017l0.012-0.001zM12.307 3.607c0.101-0.006 0.202-0.012 0.303-0.011 1.238 0.009 2.477 0.562 3.347 1.435 1.184 1.188 1.427 2.448 1.429 4.060l-9.638 0.004c-0.039-1.386 0.184-2.651 1.093-3.746 0.873-1.051 2.12-1.622 3.465-1.742z"></path>
<path d="M18.487 13.065l-0.052-0.003c-2.678 0.365-5.887 1.657-7.563 3.856-1.117 1.465-1.532 2.991-1.489 4.813 1.298-2.272 3.011-4.161 5.053-5.62l0.053-0.036c0.064-0.045 0.131-0.094 0.2-0.144 0.259-0.191 0.547-0.402 0.832-0.485 0.201-0.059 0.33-0.017 0.506 0.085 0.126 0.143 0.232 0.299 0.211 0.5-0.023 0.218-0.242 0.38-0.405 0.499-0.168 0.123-0.338 0.241-0.509 0.358-0.265 0.183-0.53 0.366-0.783 0.568-1.636 1.308-3.223 3.069-4.21 4.926 2.119-0.042 4.444-0.8 5.94-2.344 1.616-1.668 2.226-4.6 2.242-6.877 0.001-0.035-0.001-0.039-0.011-0.061-0.003-0.006-0.008-0.017-0.012-0.028l-0.002-0.006zM18.881 11.843l0.015-0.001c0.058-0.007 0.128-0.013 0.199-0.016l0.004-0c0.141-0.003 0.292 0.029 0.393 0.134 0.164 0.171 0.179 0.437 0.179 0.661-0.004 2.839-0.535 6.194-2.643 8.274-1.885 1.86-4.668 2.676-7.274 2.668l-0.052 0.127-0.002 0.004c-0.147 0.362-0.295 0.725-0.425 1.094-0.038 0.108-0.082 0.261-0.13 0.428-0.1 0.35-0.217 0.759-0.332 0.93-0.107 0.158-0.27 0.195-0.447 0.224-0.063-0.007-0.12-0.018-0.174-0.036l0.006 0.002c-0.134-0.043-0.258-0.13-0.318-0.259-0.21-0.448 0.393-1.963 0.653-2.615l0.062-0.156c-0.141-0.389-0.249-0.844-0.305-1.315l-0.003-0.030c-0.237-2.107 0.48-4.247 1.793-5.892 2.043-2.56 5.64-3.86 8.8-4.225z"></path>
<path d="M18.897 11.841l-0.015 0.002c-3.16 0.365-6.758 1.665-8.8 4.225-1.313 1.645-2.030 3.785-1.793 5.892 0.059 0.501 0.167 0.956 0.321 1.389l-0.014-0.044-0.062 0.156c-0.259 0.652-0.862 2.167-0.652 2.615 0.060 0.129 0.184 0.216 0.318 0.259 0.055 0.017 0.111 0.027 0.168 0.034 0.177-0.029 0.34-0.066 0.447-0.224 0.114-0.171 0.232-0.579 0.332-0.929 0.048-0.167 0.092-0.32 0.13-0.428 0.13-0.369 0.277-0.732 0.424-1.094l0.002-0.004 0.052-0.127c2.606 0.008 5.389-0.808 7.274-2.668 2.108-2.081 2.639-5.435 2.643-8.274 0-0.224-0.015-0.489-0.179-0.661-0.101-0.105-0.252-0.137-0.393-0.134-0.068 0.001-0.136 0.009-0.204 0.016zM18.434 13.062l0.052 0.003 0.006 0.015 0.008 0.019c0.010 0.022 0.011 0.026 0.011 0.061-0.017 2.277-0.626 5.209-2.242 6.877-1.497 1.545-3.821 2.302-5.94 2.344 0.987-1.857 2.574-3.618 4.21-4.926 0.253-0.202 0.518-0.385 0.783-0.567 0.171-0.118 0.341-0.236 0.509-0.359 0.163-0.12 0.382-0.282 0.405-0.499 0.021-0.201-0.085-0.356-0.211-0.5-0.176-0.102-0.305-0.145-0.506-0.086-0.285 0.084-0.573 0.295-0.832 0.485-0.069 0.051-0.136 0.1-0.2 0.144-2.094 1.495-3.808 3.385-5.061 5.571l-0.045 0.085c-0.043-1.822 0.372-3.347 1.489-4.813 1.677-2.199 4.885-3.491 7.564-3.856zM59.585 19.558c-0.079-2.238-1.957-3.989-4.195-3.91s-3.989 1.957-3.911 4.196c0.079 2.239 1.958 3.989 4.196 3.91s3.989-1.958 3.91-4.196zM55.531 16.865c0.653 0.026 1.182 0.184 1.68 0.624 0.593 0.525 0.924 1.283 0.967 2.069s-0.204 1.583-0.739 2.169c-0.489 0.535-1.099 0.775-1.814 0.811-0.652-0.007-1.19-0.108-1.705-0.536-0.601-0.5-0.941-1.24-1.005-2.012-0.066-0.803 0.144-1.633 0.677-2.249 0.529-0.611 1.153-0.821 1.938-0.875zM48.314 19.222c-0.267-2.226-2.289-3.812-4.514-3.541-2.219 0.27-3.801 2.286-3.535 4.506s2.279 3.805 4.499 3.543c2.226-0.263 3.816-2.282 3.55-4.508zM43.929 16.898c0.649-0.053 1.237 0.015 1.786 0.393 0.616 0.423 1.003 1.077 1.131 1.808 0.145 0.83 0.009 1.717-0.49 2.408-0.437 0.605-0.983 0.906-1.71 1.021-0.664 0.034-1.251-0.006-1.811-0.402-0.59-0.419-1.004-1.055-1.126-1.788l-0.002-0.016c-0.136-0.804 0.027-1.729 0.507-2.397 0.422-0.588 1.011-0.913 1.716-1.026zM68.087 15.643c-0.022 0.001-0.043 0.003-0.063 0.005l0.003-0c-1.021 0.12-1.94 0.615-2.582 1.425-0.732 0.925-0.984 2.098-0.839 3.258 0.126 1.053 0.661 1.961 1.439 2.574l0.008 0.006c0.957 0.743 2.17 0.932 3.352 0.771 0.684-0.094 1.712-0.421 2.149-0.991 0.123-0.16 0.185-0.355 0.157-0.557-0.020-0.142-0.082-0.277-0.199-0.364-0.134-0.1-0.313-0.112-0.472-0.081-0.221 0.043-0.419 0.18-0.607 0.31-0.013 0.010-0.051 0.036-0.090 0.063l-0.028 0.018c-0.825 0.429-1.741 0.631-2.649 0.336-0.654-0.22-1.177-0.68-1.474-1.272l-0.007-0.015c-0.157-0.312-0.235-0.644-0.304-0.984h3.896c0.162 0 0.336 0.006 0.515 0.012 0.462 0.015 0.957 0.031 1.364-0.043 0.123-0.025 0.229-0.083 0.312-0.165l-0 0c0.191-0.186 0.226-0.451 0.22-0.706-0.022-0.976-0.48-1.939-1.19-2.599-0.82-0.763-1.809-1.050-2.911-1zM68.207 16.863c0.085-0.010 0.183-0.016 0.282-0.016 0.522 0 1.005 0.165 1.401 0.446l-0.007-0.005c0.583 0.414 0.889 1.002 1.011 1.694-0.494 0.006-0.988 0.005-1.483 0.003-0.247-0.001-0.494-0.001-0.741-0.001l-2.74 0.004c0.125-0.421 0.271-0.804 0.541-1.158 0.434-0.569 1.036-0.874 1.737-0.966z"></path>
<path d="M46.386 12.746c1.463-0.035 2.933-0.003 4.396-0.005 0.834-0.001 1.898-0.069 2.707 0.014 0.13 0.014 0.234 0.050 0.333 0.137 0.141 0.123 0.235 0.309 0.24 0.497 0.004 0.17-0.1 0.365-0.222 0.479-0.094 0.087-0.205 0.121-0.329 0.141-0.337 0.055-0.709 0.023-1.050 0.022l-1.816-0.003-0.001 6.738c0.003 0.568 0.075 1.806-0.011 2.29-0.027 0.152-0.082 0.303-0.187 0.419-0.112 0.125-0.267 0.188-0.434 0.191-0.174 0.004-0.345-0.034-0.471-0.161-0.148-0.148-0.203-0.367-0.221-0.57-0.034-0.374-0.003-0.77 0.001-1.145 0.007-0.556 0.002-1.112 0.001-1.668l0.004-6.095c-0.604 0.003-2.694 0.099-3.122-0.095-0.157-0.071-0.255-0.18-0.311-0.343-0.061-0.173-0.033-0.358 0.055-0.516 0.102-0.186 0.239-0.266 0.436-0.326zM36.82 15.649c0.543-0.031 1.074 0.004 1.602 0.145 0.557 0.149 1.409 0.478 1.697 1.006 0.079 0.146 0.12 0.32 0.065 0.481-0.057 0.164-0.213 0.29-0.37 0.354-0.458 0.188-1.032-0.443-1.463-0.606-0.701-0.264-1.543-0.249-2.225 0.069-0.626 0.292-1.077 0.846-1.31 1.49-0.271 0.747-0.294 1.72 0.050 2.448 0.319 0.674 0.905 1.145 1.6 1.391 0.796 0.281 1.625 0.132 2.368-0.225 0.231-0.125 0.44-0.291 0.702-0.345 0.136-0.028 0.27-0.013 0.385 0.067 0.142 0.099 0.258 0.294 0.276 0.466 0.018 0.162-0.045 0.31-0.145 0.434-0.435 0.539-1.403 0.811-2.062 0.891-1.144 0.14-2.335-0.089-3.25-0.819-0.837-0.659-1.401-1.631-1.514-2.738l-0.001-0.017c-0.014-0.129-0.023-0.279-0.023-0.431 0-0.982 0.342-1.884 0.913-2.594l-0.006 0.008c0.689-0.847 1.629-1.36 2.712-1.475zM61.248 13.603c0.023-0.001 0.045-0.002 0.068-0.003 0.203-0.007 0.407 0.048 0.55 0.197 0.342 0.357 0.206 1.561 0.202 2.053 0.465 0.003 1.598-0.142 1.947 0.168 0.126 0.113 0.178 0.269 0.178 0.435 0.001 0.161-0.041 0.316-0.161 0.429-0.326 0.309-1.503 0.187-1.965 0.184 0.004 0.99-0.13 4.040 0.175 4.791 0.493 1.214 1.562 0.146 2.172 0.433 0.13 0.062 0.237 0.191 0.286 0.327 0.069 0.192 0.008 0.364-0.072 0.541-0.013 0.015-0.027 0.030-0.041 0.045-0.368 0.383-1.060 0.476-1.568 0.483-0.59 0.009-1.147-0.092-1.582-0.528-0.315-0.315-0.51-0.748-0.606-1.178-0.148-0.665-0.087-1.401-0.087-2.079l0.002-2.833c-0.358-0-0.716-0.003-1.073-0.008-0.064-0.038-0.119-0.078-0.17-0.123l0.001 0.001c-0.141-0.127-0.206-0.317-0.211-0.504-0.004-0.157 0.044-0.311 0.161-0.419 0.289-0.268 0.924-0.172 1.292-0.165-0.001-0.515-0.114-1.439 0.081-1.892 0.086-0.201 0.228-0.274 0.422-0.355z"></path>
<path d="M32.88 13.41c-0.616-0.061-3.632-0.039-4.678-0.024-0.193 0.003-0.371 0.016-0.527 0.027-0.133 0.010-0.251 0.018-0.348 0.019 0 0-0.416 0.098-0.551 0.285-0.088 0.123-0.118 0.279-0.139 0.425-0.112 0.779-0.177 1.574-0.242 2.366-0.034 0.417-0.069 0.833-0.11 1.246l-0.397 4.004c-0.011 0.107-0.029 0.253-0.050 0.419-0.067 0.536-0.16 1.279-0.1 1.575 0.033 0.164 0.12 0.299 0.265 0.385 0.143 0.084 0.305 0.132 0.468 0.16h0.002c0.336-0.001 0.844 0.004 1.41 0.011 1.175 0.012 4.164 0.027 4.859-0.003 0.139-0.006 0.286-0.018 0.416-0.067 0.175-0.066 0.319-0.193 0.389-0.37 0.070-0.178 0.055-0.377-0.025-0.549-0.080-0.173-0.187-0.265-0.368-0.323h-6.007c0.1-0.884 0.19-1.77 0.269-2.656l0.071-0.721 0.007-0.071 0.182 0.003c0.612 0.009 3.59 0.031 3.969-0.026 0.139-0.021 0.269-0.056 0.371-0.158 0.132-0.133 0.187-0.317 0.176-0.502-0.009-0.157-0.079-0.327-0.198-0.433-0.077-0.068-0.173-0.114-0.28-0.13l-0.003-0c-0.355-0.052-3.002-0.038-3.67-0.029-0.179 0.002-0.328 0.004-0.424 0.004l0.305-3.592h3.241c0.166 0 0.338 0.005 0.512 0.011 0.423 0.013 0.862 0.028 1.255-0.034 0.14-0.021 0.26-0.069 0.361-0.171 0.124-0.125 0.192-0.313 0.183-0.489-0.010-0.179-0.106-0.349-0.246-0.459-0.106-0.083-0.214-0.121-0.348-0.134z"></path>
</symbol>
<symbol id="icon-instagram" viewBox="0 0 31 32">
<path d="M15.513 6.319c3.109 0 3.476 0.014 4.699 0.068 1.137 0.050 1.749 0.24 2.159 0.401 0.541 0.209 0.931 0.463 1.336 0.868 0.409 0.409 0.658 0.795 0.873 1.336 0.159 0.41 0.349 1.028 0.399 2.159 0.054 1.228 0.068 1.595 0.068 4.699s-0.014 3.477-0.068 4.7c-0.050 1.137-0.241 1.749-0.401 2.159-0.196 0.524-0.492 0.97-0.867 1.335l-0.001 0.001c-0.409 0.409-0.795 0.659-1.335 0.873-0.41 0.159-1.028 0.349-2.16 0.399-1.228 0.055-1.595 0.068-4.699 0.068s-3.477-0.013-4.7-0.068c-1.136-0.049-1.749-0.241-2.159-0.399-0.524-0.196-0.97-0.492-1.335-0.867l-0.001-0.001c-0.376-0.367-0.673-0.813-0.864-1.311l-0.008-0.025c-0.159-0.409-0.349-1.028-0.399-2.159-0.054-1.228-0.068-1.596-0.068-4.7s0.014-3.476 0.068-4.7c0.050-1.136 0.24-1.749 0.399-2.159 0.209-0.541 0.465-0.931 0.869-1.337 0.367-0.376 0.813-0.673 1.311-0.863l0.025-0.008c0.409-0.159 1.027-0.349 2.159-0.399 1.223-0.054 1.591-0.068 4.7-0.068zM15.513 4.225c-3.159 0-3.554 0.013-4.795 0.068-1.236 0.054-2.087 0.254-2.822 0.541-0.808 0.308-1.497 0.766-2.063 1.344l-0.001 0.001c-0.578 0.566-1.036 1.253-1.332 2.020l-0.013 0.039c-0.287 0.741-0.487 1.585-0.541 2.822-0.054 1.246-0.068 1.641-0.068 4.8s0.014 3.553 0.068 4.794c0.054 1.236 0.254 2.087 0.541 2.822 0.301 0.769 0.695 1.419 1.345 2.064 0.566 0.577 1.253 1.033 2.020 1.328l0.039 0.013c0.741 0.287 1.586 0.487 2.822 0.541 1.241 0.054 1.637 0.068 4.795 0.068s3.555-0.014 4.795-0.068c1.236-0.054 2.087-0.254 2.822-0.541 0.806-0.308 1.493-0.764 2.058-1.34l0.001-0.001c0.577-0.566 1.033-1.253 1.328-2.020l0.013-0.039c0.287-0.741 0.487-1.585 0.541-2.822 0.054-1.241 0.068-1.636 0.068-4.795s-0.014-3.554-0.068-4.795c-0.054-1.236-0.254-2.086-0.541-2.822-0.296-0.812-0.751-1.503-1.33-2.067l-0.001-0.001c-0.566-0.577-1.253-1.033-2.020-1.328l-0.039-0.013c-0.741-0.286-1.585-0.486-2.822-0.541-1.245-0.058-1.641-0.073-4.8-0.073v0.001z"></path>
<path d="M15.512 9.882c-0.001 0-0.001 0-0.002 0-3.302 0-5.978 2.677-5.978 5.978s2.677 5.978 5.978 5.978c3.302 0 5.978-2.677 5.978-5.978 0-0.001 0-0.001 0-0.002v0c-0.001-3.3-2.676-5.975-5.976-5.976h-0zM15.512 19.735c-0.018 0-0.040 0-0.061 0-2.141 0-3.877-1.736-3.877-3.877s1.736-3.877 3.877-3.877c0.022 0 0.043 0 0.065 0.001l-0.003-0c2.115 0.034 3.816 1.757 3.816 3.876s-1.701 3.842-3.812 3.876l-0.003 0zM23.119 9.647c0 0.771-0.625 1.395-1.395 1.395s-1.395-0.625-1.395-1.395v0c0-0.771 0.625-1.395 1.395-1.395s1.395 0.625 1.395 1.395v0z"></path>
</symbol>
<symbol id="icon-linkedin" viewBox="0 0 31 32">
<path d="M24.97 4.223h-18.909c-1.203 0.004-2.178 0.978-2.182 2.181v18.909c0.004 1.203 0.978 2.178 2.181 2.182h18.909c1.203-0.004 2.178-0.978 2.182-2.181v-18.909c-0.004-1.203-0.978-2.178-2.181-2.182h-0zM12.606 23.132h-2.909v-10.182h2.909v10.182zM11.152 11.496c-0.805 0-1.455-0.65-1.455-1.455s0.65-1.455 1.455-1.455 1.455 0.651 1.455 1.455c0 0.805-0.65 1.455-1.455 1.455zM22.788 23.132h-2.909v-5.818c0-0.804-0.65-1.455-1.455-1.455s-1.455 0.651-1.455 1.455v5.818h-2.909v-10.182h2.909v1.805c0.6-0.822 1.518-1.804 2.545-1.804 1.809 0 3.273 1.627 3.273 3.636v6.545z"></path>
</symbol>
<symbol id="icon-youtube" viewBox="0 0 31 32">
<path d="M27.919 9.658c-0.307-1.114-1.166-1.974-2.256-2.278l-0.023-0.005c-2.024-0.556-10.124-0.565-10.124-0.565s-8.1-0.009-10.126 0.524c-1.111 0.323-1.967 1.184-2.278 2.275l-0.006 0.023c-0.533 2.025-0.539 6.223-0.539 6.223s-0.005 4.22 0.526 6.225c0.308 1.113 1.166 1.972 2.256 2.275l0.023 0.005c2.046 0.557 10.124 0.565 10.124 0.565s8.101 0.010 10.126-0.521c1.113-0.309 1.973-1.167 2.279-2.256l0.006-0.023c0.535-2.025 0.539-6.223 0.539-6.223s0.025-4.221-0.527-6.246zM12.924 19.745l0.007-7.758 6.733 3.886-6.739 3.873z"></path>
</symbol>
  </defs>
</svg>