<svg xmlns="http://www.w3.org/2000/svg" width="32" height="32" fill="none"><path fill="#75D281" d="M0 0h32v32H0z"/><path fill="#030A06" d="M15.511 3c-.128 0-.263 0-.39.015-1.469.123-2.819.747-3.78 1.884-1.047 1.238-1.3 2.542-1.288 4.117l-2.8-.004q-.188-.001-.386-.008c-.365-.01-.744-.02-1.086.042a.97.97 0 0 0-.532.29c-.254.264-.26.598-.244.94.026.54.073 1.08.12 1.62q.038.44.071.88l.465 6.004.226 2.9q.016.215.029.432c.032.52.064 1.046.201 1.542a4.652 4.652 0 0 0 3.346 3.263c.628.151 1.357.134 2.042.118q.307-.009.596-.01h7.06q.27.001.552.01c.608.014 1.242.03 1.81-.103a4.74 4.74 0 0 0 2.192-1.203c.543-.539.976-1.258 1.166-2.001.145-.569.181-1.192.217-1.797q.015-.293.037-.577l.309-3.976.385-4.882a34 34 0 0 1 .067-.73c.052-.529.105-1.062.104-1.585 0-.322-.069-.622-.3-.861-.158-.165-.417-.245-.637-.281-.329-.054-.69-.044-1.039-.035q-.194.006-.38.007-1.32-.003-2.642.01h-.037c.02-1.687-.355-3.135-1.568-4.369A5.4 5.4 0 0 0 15.53 3zm5.336 9.623.047.003.004.01.001.003.006.014.002.004c.009.02.01.023.01.055-.015 2.069-.57 4.733-2.037 6.248-1.36 1.403-3.471 2.091-5.397 2.13.897-1.688 2.338-3.287 3.825-4.475.23-.184.47-.35.711-.516q.233-.16.463-.326c.148-.108.347-.255.368-.453.019-.183-.078-.324-.192-.454-.16-.093-.277-.132-.46-.078-.259.076-.52.268-.756.44q-.093.07-.181.132a15.8 15.8 0 0 0-4.638 5.138c-.039-1.655.338-3.04 1.353-4.372 1.523-1.997 4.438-3.171 6.87-3.503M6.05 10.048H24.96c-.067.637-.11 1.28-.154 1.921q-.035.537-.076 1.071l-.51 6.381-.19 2.352-.024.307c-.03.406-.061.815-.14 1.212a3.5 3.5 0 0 1-.448 1.118q-.122.185-.264.356c-.549.655-1.449 1.143-2.303 1.208-.466.035-.945.026-1.42.018q-.308-.007-.611-.008l-3.924-.001-3.122.001q-.226 0-.458.007c-.474.01-.959.02-1.414-.059a3.37 3.37 0 0 1-1.614-.761 3.53 3.53 0 0 1-1.133-1.783c-.128-.462-.16-.953-.191-1.436l-.025-.362-.186-2.392zm15.217 1.467-.014.001c-2.871.332-6.14 1.513-7.995 3.839-1.192 1.494-1.844 3.438-1.629 5.352.047.42.143.822.28 1.222l-.056.142c-.236.592-.783 1.968-.593 2.375a.47.47 0 0 0 .289.235q.074.023.153.031c.16-.026.31-.06.406-.203.104-.155.21-.527.301-.845.044-.151.084-.29.118-.388.118-.335.252-.665.386-.994l.001-.004.047-.115c2.368.007 4.896-.734 6.608-2.424 1.916-1.89 2.398-4.938 2.402-7.517 0-.203-.014-.445-.163-.6-.091-.096-.229-.125-.357-.122a2 2 0 0 0-.184.015m-5.986-7.48a4 4 0 0 1 .275-.01c1.125.007 2.25.51 3.04 1.302 1.076 1.08 1.297 2.224 1.299 3.689l-4.12-.002-4.636.006c-.035-1.26.168-2.41.994-3.403.793-.955 1.925-1.473 3.148-1.583"/></svg>